<?xml version="1.0" encoding="UTF-8"?><svg id="Layer_1" xmlns="http://www.w3.org/2000/svg" viewBox="0 0 72.19 109.12"><defs><style>.cls-1{stroke-width:3px;}.cls-1,.cls-2,.cls-3,.cls-4,.cls-5,.cls-6,.cls-7,.cls-8,.cls-9,.cls-10{stroke:#000;stroke-miterlimit:10;}.cls-1,.cls-9,.cls-10{fill:none;}.cls-11{fill:#fff;}.cls-2{fill:#fdfefe;}.cls-2,.cls-3,.cls-4,.cls-9,.cls-10{stroke-width:2px;}.cls-3{fill:#f5a2a4;}.cls-3,.cls-9{stroke-linecap:round;}.cls-4,.cls-12{fill:#f9cbd0;}.cls-12{opacity:.56;}.cls-12,.cls-13{isolation:isolate;}.cls-13{fill:#512110;opacity:.51;}.cls-5{fill:#dea7cb;}.cls-6{fill:#96509c;}.cls-7{fill:#6fbe64;}.cls-8{fill:#4a9ad1;}</style></defs><path class="cls-3" d="m23.79,8.69v5.49s-15.49,5.26-15.49,20.55v37.85c0,15.29,15.49,20.55,15.49,20.55v5.49c0,2.77,2.12,5.2,5.01,5.54.13.01.26.03.4.03,3.76.26,5.59-3.06,5.59-3.06v-6.36h.22v6.34c.16,1.17,2.48,3.22,6.27,3.07.95-.04,1.72-.26,2.35-.59,1.55-.79,2.45-2.39,2.45-4.07v-6.59s13.6-4.55,14.63-20.26v-38.06c-1.03-15.7-14.63-20.26-14.63-20.26v-6.59c0-1.67-.65-2.83-1.49-3.64-2.03-1.96-5.34-2.2-7.65-.54-1.18.86-1.84,1.96-1.93,2.59v6.34h-.22s0-6.36,0-6.36c0,0-.14-1.68-2.21-2.78-2.45-1.3-5.57-.9-7.37,1.16-.81.93-1.42,2.25-1.42,4.14Z"/><path class="cls-2" d="m44.65,53.36c-6.38,0-11.56-4.94-11.56-11.03s5.17-11.03,11.56-11.03,11.56,4.94,11.56,11.03-5.17,11.03-11.56,11.03Z"/><path class="cls-9" d="m22.13,47.68v16.76c0,2.73-1.55,5.3-4.12,6.5-2.52,1.18-7.97.66-9.7-3.55"/><path d="m36.22,33.86c-1.33-3.87-6.04-5.97-9.94-4.08-.62.25-1.25.67-1.95.55-.45-.06-.84-.19-1.24-.46.28,1.05,1.64,1.57,2.68,1.27,4.15-1.24,7.41-.17,10.46,2.72Z"/><path d="m51.89,33.3c3.05-2.9,6.31-3.96,10.46-2.72,1.04.3,2.4-.22,2.68-1.27-.4.28-.78.4-1.24.46-.71.12-1.33-.3-1.95-.55-3.91-1.9-8.62.21-9.95,4.08Z"/><path d="m49.09,48.22c-1.13,0-2.05-.88-2.05-1.96s.92-1.96,2.05-1.96,2.05.88,2.05,1.96-.92,1.96-2.05,1.96Z"/><path class="cls-8" d="m21.84,70.15c.96,0,1.74-.75,1.74-1.67v-.79c0-.92-.79-1.67-1.74-1.67s-1.74.75-1.74,1.67v.79c0,.91.78,1.67,1.74,1.67Z"/><path class="cls-5" d="m18.03,72.9c.96,0,1.74-.75,1.74-1.66v-.8c0-.92-.79-1.67-1.74-1.67s-1.74.75-1.74,1.67v.8c0,.91.78,1.66,1.74,1.66Z"/><path class="cls-7" d="m13.47,73.07c.96,0,1.74-.75,1.74-1.67v-.79c0-.92-.79-1.67-1.74-1.67s-1.75.75-1.75,1.67v.79c0,.91.79,1.67,1.75,1.67Z"/><path class="cls-6" d="m9.56,72.21c.96,0,1.74-.75,1.74-1.66v-.8c0-.92-.78-1.67-1.74-1.67s-1.75.75-1.75,1.67v.8c0,.92.78,1.66,1.75,1.66Z"/><path class="cls-13" d="m51.27,67.5c-5.88,0-10.64-.74-10.64-1.66s4.77-1.66,10.64-1.66,10.65.74,10.65,1.66-4.77,1.66-10.65,1.66Z"/><path class="cls-12" d="m63.77,57.21l-4.32,20.92s-2.63,2.35-7.68,2.37c-6.08.04-8.67-1.5-8.67-1.5l-4.58-21.79"/><path class="cls-4" d="m51.43,60.64c-6.97,0-12.63-1.54-12.63-3.43s5.65-3.43,12.63-3.43,12.63,1.54,12.63,3.43-5.65,3.43-12.63,3.43Z"/><path d="m51.76,57.68c-1.51,0-2.73-.26-2.73-.59s1.22-.59,2.73-.59,2.73.27,2.73.59-1.22.59-2.73.59Z"/><path class="cls-1" d="m51.76,57.09l-2.66-10.83"/><path class="cls-10" d="m63.93,57.68l-4.19,20.44s-4.74,4.72-16.35.87l-4.48-21.32"/><path d="m52.36,78.61c-.6,0-1.09-.47-1.09-1.04s.49-1.04,1.09-1.04,1.09.46,1.09,1.04-.49,1.04-1.09,1.04Z"/><path d="m48.33,74.16c-.6,0-1.09-.46-1.09-1.04s.49-1.04,1.09-1.04,1.09.46,1.09,1.04-.49,1.04-1.09,1.04Z"/><path d="m57.59,69.99c-.6,0-1.09-.46-1.09-1.04s.49-1.04,1.09-1.04,1.09.47,1.09,1.04-.49,1.04-1.09,1.04Z"/><path d="m56,74.9c-.6,0-1.09-.46-1.09-1.04s.49-1.04,1.09-1.04,1.09.47,1.09,1.04-.49,1.04-1.09,1.04Z"/><path d="m47.24,76.81c-.35,0-.64-.27-.64-.61s.29-.61.64-.61.64.27.64.61-.29.61-.64.61Z"/><path d="m46.31,69.46c-.35,0-.64-.27-.64-.61s.29-.61.64-.61.64.27.64.61-.29.61-.64.61Z"/><path d="m54.28,71.84c-.35,0-.64-.27-.64-.61s.29-.61.64-.61.64.27.64.61-.29.61-.64.61Z"/><path d="m57.59,76.81c-.35,0-.64-.27-.64-.61s.29-.61.64-.61.64.27.64.61-.29.61-.64.61Z"/><path class="cls-11" d="m58.13,68.95c-.13,0-.23-.1-.23-.22s.1-.22.23-.22.23.1.23.22-.1.22-.23.22Z"/><path class="cls-11" d="m56.63,73.86c-.13,0-.23-.1-.23-.22s.1-.22.23-.22.23.1.23.22-.1.22-.23.22Z"/><path class="cls-11" d="m53.98,71.45c-.13,0-.23-.1-.23-.22s.1-.22.23-.22.23.1.23.22-.1.22-.23.22Z"/><path class="cls-11" d="m57.9,76.34c-.13,0-.23-.1-.23-.22s.1-.22.23-.22.23.1.23.22-.1.22-.23.22Z"/><path class="cls-11" d="m47.88,72.89c-.13,0-.23-.1-.23-.22s.1-.22.23-.22.23.1.23.22-.1.22-.23.22Z"/><path class="cls-11" d="m52.75,78.27c-.13,0-.23-.1-.23-.22s.1-.22.23-.22.23.1.23.22-.1.22-.23.22Z"/><path class="cls-11" d="m46.94,76.56c-.13,0-.23-.1-.23-.22s.1-.22.23-.22.23.1.23.22-.1.22-.23.22Z"/><path class="cls-11" d="m46.6,68.95c-.13,0-.23-.1-.23-.22s.1-.22.23-.22.23.1.23.22-.1.22-.23.22Z"/><path class="cls-3" d="m63.76,68.18c-3.86,0-6.99-2.81-6.99-6.27s3.13-6.27,6.99-6.27,6.99,2.81,6.99,6.27-3.13,6.27-6.99,6.27Z"/><path class="cls-5" d="m59.11,60.24c0-.92-.78-1.67-1.74-1.67h-.83c-.96,0-1.74.75-1.74,1.67s.79,1.67,1.74,1.67h.83c.96,0,1.74-.75,1.74-1.67Z"/><path class="cls-7" d="m59.02,64.19c0-.92-.78-1.67-1.74-1.67h-.84c-.96,0-1.74.75-1.74,1.67s.78,1.66,1.74,1.66h.83c.96,0,1.75-.75,1.75-1.66Z"/><path class="cls-6" d="m61.18,67.91c0-.92-.78-1.67-1.75-1.67h-.83c-.96,0-1.74.75-1.74,1.67s.78,1.67,1.74,1.67h.83c.96,0,1.75-.75,1.75-1.67Z"/><path class="cls-8" d="m61.18,56.65c0-.92-.78-1.67-1.75-1.67h-.83c-.96,0-1.74.75-1.74,1.67s.78,1.67,1.74,1.67h.83c.96,0,1.75-.75,1.75-1.67Z"/></svg>