<?xml version="1.0" encoding="UTF-8"?><svg id="Layer_1" xmlns="http://www.w3.org/2000/svg" viewBox="0 0 609.34 339"><defs><style>.cls-1{fill:#a7daff;}</style></defs><path class="cls-1" d="m8.83,201.31c-.47,1.33-1.17,2.82-2.17,4.47,0,0,14.7,1.56,12.2,9.85-2.5,8.3-12.2,9.04-12.2,9.04,0,0,11.57,2.08,7.82,15.27,0,0,18.44-2.75,18.44,12.31,0,0,20.75-4.96,25.3,12.47,0,0,16.67-5.67,23.19,7.38.19.38.37.77.54,1.19,0,0,11.94-.91,17.21,4.27,5.27,5.18,2.68,14.81,2.68,14.81,0,0,6.72,2.1,6.15,6.35s-6.01,6.7-6.01,6.7c0,0,5.84.84,8.6,4.28,0,0,1.75-1.54,5.93-1.4,4.18.15,7.73,2.57,7.73,2.57,0,0,1.43-2.58,9.45-2.62,8.02-.04,10.97,5.79,10.97,5.79,0,0,3.29-1.41,6.79-1.48,4.55-.09,11.88,1.54,10.09,7.33,0,0,10.17-2.8,16.94,2.24,0,0,4.03,2.44,4.03,6.57,0,0,2.88-2.1,9.06-2.16,7.48-.07,10.86,2.59,10.86,2.59,0,0-.88-5.23,8.08-6.02,8.96-.8,18.04,1.17,18.04,1.17,0,0-.51-6.25,8.83-6.83,0,0,5.79-.36,9.03,1.69,0,0,1.11-12.48,17.43-13.2,0,0,7.04-.43,12.85,1.98,0,0,.72-8.02,16.35-8.58,0,0,10.86-.7,15.63,4.02,0,0-5.62-23.42,33.85-24.86,0,0,14.89-.32,22,5.69,0,0,5.12-7.38,20.91-6.64,15.79.74,19.8,10.33,19.8,13.07s-2.22,9.38-2.22,9.38c0,0,3.99-3.54,10.72-2.96,6.73.58,7.35,5.95,7.35,5.95,0,0,1.64-1.16,3.8-1.16s3.71.82,4.92,1.8c0,0,3.28-5.09,15.01-4.65,11.73.45,17.73,4.77,16.4,11.06,0,0,10.8-.97,13.49,5.05,0,0,.05,3.13,0,4.58,0,0,6.24.3,6.78,2.81,0,0,6.56-4.69,14.65-3.37,8.09,1.32,8.81,7.5,8.81,7.5,0,0,3.33-2,12.76-1.49,0,0,5.04-2.6,14.75-2.47,0,0-8.7-15.8,6.02-18.94,0,0,6.4-1.24,13.94-1.08,0,0-1.99-7.79,10.5-11.16,0,0-4.49-10.62,13.03-10.97,0,0,5.29-.17,8.94,1.64,0,0,2.31-2.67,8.64-2.95,0,0-8.2-11.16,1.16-14.31,0,0-16.48-6.01-18.92-15.86-1.03-4.14.96-8.33,5.46-11.9.23-.19.45-.34.62-.45,0,0-5.06-8.19,4.36-12.76,2.37-1.15,5.76-1.76,9.09-1.46,1.59.14,3.29.48,4.8,1.2,0,0,2.33-1.6,8.72-1.05l.51,116.73H0v-151.64c7.19,3.65,10.56,8.67,8.83,13.59Z"/></svg>