<?xml version="1.0" encoding="UTF-8"?><svg id="Layer_1" xmlns="http://www.w3.org/2000/svg" viewBox="0 0 151.1 141.59"><defs><style>.cls-1{fill:#8beff2;stroke-linejoin:round;stroke-width:8px;}.cls-1,.cls-2{stroke:#000;}.cls-2{fill:#e6e6e6;stroke-width:10px;}</style></defs><path class="cls-2" d="m141.85,69.18c0,6.24-2.53,11.89-6.61,15.98-4.09,4.09-9.74,6.61-15.98,6.61H34.11c-12.36,0-22.8-9.72-23.08-22.07-.14-6.44,2.41-12.3,6.61-16.49,4.09-4.09,9.74-6.62,15.98-6.62h9.06s.05-.02.06-.05c1.46-19.25,18.05-34.43,38.3-34.43s36.85,15.18,38.3,34.43c0,.03.03.05.06.05,12.41.07,22.45,10.16,22.45,22.6h0Z"/><path class="cls-1" d="m54.07,83.72l7.25,7.25c4,4,4,10.49,0,14.49h0c-4,4-10.49,4-14.49,0h0c-4-4-4-10.49,0-14.49l7.25-7.25h0Z"/><path class="cls-1" d="m107.67,107.41l7.25,7.25c4,4,4,10.49,0,14.49h0c-4,4-10.49,4-14.49,0h0c-4-4-4-10.49,0-14.49l7.25-7.25h0Z"/></svg>