<?xml version="1.0" encoding="UTF-8"?><svg id="Layer_1" xmlns="http://www.w3.org/2000/svg" viewBox="0 0 635.89 285"><defs><style>.cls-1{fill:#a7daff;}</style></defs><path class="cls-1" d="m9.21,141.5c-.49,1.39-1.22,2.94-2.27,4.67,0,0,15.34,1.62,12.73,10.29-2.61,8.66-12.73,9.43-12.73,9.43,0,0,12.08,2.17,8.16,15.93,0,0,19.24-2.86,19.24,12.85,0,0,21.65-5.18,26.4,13.01,0,0,17.39-5.92,24.2,7.7.2.4.38.81.56,1.24,0,0,12.46-.95,17.96,4.46,5.5,5.41,2.79,15.45,2.79,15.45,0,0,7.02,2.19,6.42,6.63-.6,4.44-6.28,6.99-6.28,6.99,0,0,6.1.87,8.97,4.47,0,0,1.82-1.61,6.19-1.46s8.07,2.69,8.07,2.69c0,0,1.49-2.69,9.87-2.73,8.37-.04,11.45,6.04,11.45,6.04,0,0,3.44-1.47,7.09-1.54,4.75-.09,12.4,1.61,10.53,7.65,0,0,10.61-2.92,17.68,2.34,0,0,4.21,2.55,4.21,6.85,0,0,3.01-2.19,9.45-2.25,7.81-.08,11.34,2.7,11.34,2.7,0,0-.92-5.45,8.43-6.29,9.35-.83,18.83,1.22,18.83,1.22,0,0-.53-6.52,9.21-7.13,0,0,6.04-.38,9.43,1.76,0,0,1.16-13.02,18.19-13.78,0,0,7.35-.45,13.41,2.07,0,0,.75-8.37,17.06-8.96,0,0,11.34-.74,16.31,4.2,0,0-5.87-24.45,35.33-25.95,0,0,15.53-.33,22.96,5.94,0,0,5.34-7.7,21.82-6.93,16.48.77,20.66,10.78,20.66,13.64s-2.32,9.79-2.32,9.79c0,0,4.16-3.7,11.19-3.09,7.03.6,7.67,6.21,7.67,6.21,0,0,1.71-1.21,3.96-1.21s3.87.85,5.13,1.88c0,0,3.43-5.31,15.67-4.85,12.24.47,18.5,4.97,17.11,11.54,0,0,11.27-1.02,14.08,5.27,0,0,.05,3.27,0,4.78,0,0,6.52.31,7.08,2.94,0,0,6.85-4.89,15.29-3.51,8.45,1.38,9.2,7.83,9.2,7.83,0,0,3.47-2.09,13.32-1.56,0,0,5.26-2.71,15.39-2.58,0,0-9.08-16.49,6.28-19.76,0,0,6.68-1.29,14.54-1.13,0,0-2.07-8.13,10.95-11.64,0,0-4.69-11.08,13.6-11.44,0,0,5.53-.18,9.33,1.71,0,0,2.41-2.79,9.02-3.08,0,0-8.56-11.64,1.21-14.93,0,0-17.19-6.27-19.75-16.55-1.07-4.32,1-8.69,5.7-12.42.24-.2.46-.36.65-.47,0,0-5.28-8.55,4.55-13.31,2.47-1.2,6.01-1.84,9.49-1.53,1.66.15,3.43.5,5.01,1.25,0,0,2.43-1.67,9.1-1.09l.54,121.82H0V127.31c7.51,3.81,11.02,9.05,9.21,14.19Z"/></svg>