<?xml version="1.0" encoding="UTF-8"?><svg id="Layer_1" xmlns="http://www.w3.org/2000/svg" viewBox="0 0 65 55.841133597246881"><defs><style>.cls-1{stroke:#000;stroke-miterlimit:10;stroke-width:10px;}</style></defs><path class="cls-1" d="m6.67399088541606,6.867767541858484c1.115864187047919-1.130359983721064,2.416213768115995-1.6978197628614,3.905719259510988-1.6978197628614,2.017663043478933,0,3.507168534873927.8489098814307,4.463845957880949,2.54672964429119l15.942028985507022,27.844078308208736c.318762737771976.339481051217263.742222882699934.509428830215256,1.275440160778999.509428830215256.530492810235955,0,.95628821331502-.169947778997994,1.275050951086996-.509428830215256l15.942028985507022-27.844078308208736c1.061374830163004-1.809322086152861,2.603034420289987-2.716677423288274,4.623421931612938-2.716677423288274,1.594202898550066,0,2.973951256793043.567874285919061,4.14469401041697,1.69781976286049,1.168407495470092,1.132847024389775,1.753778872282055,2.491185736034822,1.753778872282055,4.074601628155506,0,1.358338711645047-.478338711503966,2.661133515031906-1.434626924818986,3.905068355936237l-20.405874943387971,32.598056545575673c-1.594202898550066,2.377196372071921-3.507168534873017,3.565587304718974-5.739286118659038,3.565587304718974-2.338761039402016,0-4.304269984148959-1.188390932647053-5.898472882699025-3.565587304718974L6.115864187047009,14.847437525949317c-.744558140851041-1.130359983721064-1.115864187047009-2.432740280330108-1.115864187047009-3.905068355936237,0-1.583830398899408.558126698369051-2.942169110543546,1.67399088541606-4.074601628154596Z"/></svg>