<?xml version="1.0" encoding="UTF-8"?><svg id="Layer_1" xmlns="http://www.w3.org/2000/svg" viewBox="0 0 78.89 71"><defs><style>.cls-1{fill:#d93d4a;}.cls-1,.cls-2,.cls-3{stroke:#000;stroke-width:3px;}.cls-1,.cls-3{stroke-linejoin:round;}.cls-2{fill:#d9d9d9;stroke-miterlimit:10;}.cls-3{fill:none;stroke-linecap:round;}</style></defs><path class="cls-2" d="m12.46,31.3L51.92,8.36c2.32-1.35,5.2-.62,6.43,1.63l13.44,24.62c1.23,2.25.34,5.17-1.98,6.52l-39.71,23.08c-2.32,1.35-5.2.62-6.43-1.63l-13.31-24.38c-1.3-2.38-.36-5.47,2.1-6.9Z"/><path class="cls-3" d="m10.58,34.21l33.52,6.14,10.9-30.87"/><path class="cls-1" d="m49.02,29.88c.56,1.03.72,2.29.34,3.55l-3.25,10.69-.11-.03-.02.06-10.54-2.67c-1.24-.31-2.2-1.11-2.77-2.14-.56-1.03-.72-2.29-.34-3.55.76-2.51,3.39-4.04,5.87-3.41l1.68.43.5-1.65c.77-2.51,3.39-4.04,5.87-3.41,1.24.31,2.2,1.11,2.76,2.13Z"/></svg>