<?xml version="1.0" encoding="UTF-8"?><svg id="Layer_1" xmlns="http://www.w3.org/2000/svg" viewBox="0 0 57.34 51.03"><defs><style>.cls-1{fill:none;stroke-linecap:round;stroke-miterlimit:10;}.cls-1,.cls-2,.cls-3{stroke:#000;stroke-width:3px;}.cls-4{fill:#0094a8;}.cls-5,.cls-2{fill:#e6e6e6;}</style></defs><path class="cls-2" d="m19.76,8.26l-5.67,1.81c-5.89,1.89-8.83,8.27-6.57,14.24l2.19,5.76c4.2,11.05,16.46,17.19,27.36,13.71l5.68-1.81c5.89-1.89,8.83-8.27,6.57-14.24l-2.19-5.75c-4.2-11.05-16.46-17.19-27.36-13.71Z"/><path class="cls-4" d="m23.43,36.91c-6.09-3.05-8.84-10.28-6.13-16.15,2.7-5.86,9.83-8.14,15.92-5.09,6.09,3.05,8.84,10.28,6.13,16.15-2.7,5.86-9.83,8.14-15.92,5.09Z"/><path class="cls-3" d="m26.34,30.6c-2.24-1.12-3.24-3.77-2.25-5.93.99-2.15,3.61-2.99,5.85-1.87,2.23,1.12,3.24,3.77,2.25,5.93-.99,2.15-3.61,2.99-5.85,1.87Z"/><path class="cls-5" d="m21.31,30.33c-1.19-.6-1.73-2.01-1.2-3.15.53-1.15,1.92-1.59,3.11-.99,1.19.6,1.73,2.01,1.2,3.15-.53,1.14-1.92,1.59-3.11.99Z"/><path class="cls-1" d="m7.9,35.7c.64-.45,1.27-.9,1.91-1.35"/><path class="cls-1" d="m33.27,48.66c-.15-.85-.31-1.7-.46-2.55"/><path class="cls-1" d="m19.65,43.61c-.33.72-.66,1.44-.99,2.16"/><path class="cls-1" d="m22.45,4c.06.8.12,1.6.18,2.4"/><path class="cls-1" d="m48.38,16.75c-.73.41-1.47.81-2.2,1.22"/><path class="cls-1" d="m36.1,9.36c.41-.93.83-1.86,1.24-2.78"/></svg>