<?xml version="1.0" encoding="UTF-8"?><svg id="Layer_1" xmlns="http://www.w3.org/2000/svg" viewBox="0 0 61.36 65.29"><defs><style>.cls-1{fill:#0094a8;}.cls-1,.cls-2{stroke:#000;stroke-linejoin:round;stroke-width:3px;}.cls-2{fill:#f393b2;}</style></defs><path class="cls-1" d="m57.92,41.87l-17.67,13.78c-10.44,8.14-25.11,4.79-32.74-7.49C-.12,35.88,2.16,19.31,12.6,11.16c10.44-8.14,25.11-4.79,32.74,7.49l12.91,20.78c.5.81.35,1.9-.34,2.44Z"/><path class="cls-2" d="m31.76,17.35c1.87,1.75,3.28,4.1,3.79,6.64l4.37,21.65h-.21s.02.1.02.1l-19.86-1.04c-2.33-.12-4.65-1.27-6.52-3.01-1.86-1.74-3.28-4.1-3.79-6.64-1.03-5.09,1.92-9.01,6.59-8.77l3.17.17-.67-3.34c-1.02-5.09,1.93-9.01,6.59-8.77,2.33.12,4.65,1.27,6.52,3.01Z"/></svg>