<?xml version="1.0" encoding="UTF-8"?><svg id="Layer_1" xmlns="http://www.w3.org/2000/svg" viewBox="0 0 105 125.25"><defs><style>.cls-1,.cls-2,.cls-3,.cls-4,.cls-5,.cls-6,.cls-7,.cls-8,.cls-9,.cls-10,.cls-11,.cls-12,.cls-13,.cls-14,.cls-15{stroke:#000;stroke-miterlimit:10;}.cls-1,.cls-5,.cls-15{stroke-linecap:round;}.cls-1,.cls-12,.cls-13,.cls-14{fill:none;}.cls-1,.cls-15{stroke-width:1.5px;}.cls-2,.cls-3,.cls-14{stroke-width:.3px;}.cls-2,.cls-5,.cls-9,.cls-15{fill:#8dd5e8;}.cls-3,.cls-16,.cls-4,.cls-6{fill:#fff;}.cls-17{fill:#6ec9cc;}.cls-18,.cls-11{fill:#5b215f;}.cls-4{stroke-width:.2px;}.cls-6,.cls-7,.cls-8,.cls-9{stroke-width:.5px;}.cls-7{fill:#35c5f2;}.cls-8{fill:#924095;}.cls-10{fill:#fdfefe;}.cls-12{stroke-width:2px;}</style></defs><path class="cls-7" d="m26.84,27.11l-1.28.71c-.56.31-1.33.21-1.74-.21-.4-.43-.28-1.02.28-1.33l1.28-.71c.56-.31,1.33-.21,1.74.21.4.42.27,1.03-.28,1.33Z"/><path class="cls-7" d="m26.84,23.19l-1.28.71c-.56.31-1.33.21-1.74-.21-.4-.43-.28-1.02.28-1.33l1.28-.71c.56-.31,1.33-.21,1.74.21.4.42.27,1.02-.28,1.33Z"/><path class="cls-7" d="m26.84,19.27l-1.28.71c-.56.31-1.33.21-1.74-.22-.4-.43-.28-1.02.28-1.33l1.28-.71c.56-.31,1.33-.21,1.74.21.4.42.27,1.02-.28,1.33Z"/><path class="cls-5" d="m49.41,78.98h-20.29c-3.73,0-6.78-2.94-6.78-6.54s3.05-6.54,6.78-6.54h20.29c3.73,0,6.78,2.94,6.78,6.54s-3.05,6.54-6.78,6.54Z"/><path class="cls-15" d="m83.85,21.05v5.43s13.71,5.2,13.71,20.34v37.46c0,15.14-13.71,20.34-13.71,20.34v5.43c0,2.74-1.88,5.15-4.43,5.48-.11.01-.23.02-.35.04-3.33.26-4.95-3.03-4.95-3.03v-6.29h-.19v6.28c-.15,1.16-2.19,3.18-5.55,3.04-.84-.04-1.52-.26-2.08-.58-1.37-.79-2.16-2.37-2.16-4.03v-6.52s-12.04-4.51-12.95-20.05v-37.66c.91-15.54,12.95-20.05,12.95-20.05v-6.52c0-1.65.58-2.8,1.32-3.6,1.8-1.94,4.73-2.18,6.77-.54,1.05.85,1.63,1.94,1.71,2.57v6.27h.19s0-6.29,0-6.29c0,0,.13-1.66,1.96-2.75,2.17-1.29,4.94-.89,6.52,1.15.71.91,1.26,2.22,1.26,4.09Z"/><path class="cls-10" d="m64.97,61.99c5.54,0,10.03-4.39,10.03-9.8s-4.49-9.8-10.03-9.8-10.03,4.39-10.03,9.8,4.49,9.8,10.03,9.8Z"/><path d="m61.83,58.07c1.04,0,1.88-.58,1.88-1.31s-.84-1.31-1.88-1.31-1.88.58-1.88,1.31.84,1.31,1.88,1.31Z"/><path class="cls-12" d="m69.98,49.36c1.82-2.01,4.73-1.74,4.73-1.74,2.93,0,5.3,2.34,5.3,5.22s-2.38,5.22-5.3,5.22c0,0-2.98.14-4.73-2.02"/><path class="cls-18" d="m51.17,41.08v40.66c-.05,6.3-2.38,9.7-4.56,12.85-2.19,3.15-4.41,6.67-4.2,10.55-2.38-2.36-3.19-6.05-2.89-9.45.3-3.4,1.59-6.62,2.89-9.77,1.3-3.14,3.93-7.82,2.59-9.76.67.97-1.52,3.01-2.93,3.88-1.41.87-2.98,1.46-4.27,2.52-1.29,1.05-2.27,2.78-1.85,4.43-1.79-2.22-1.14-5.68.4-8.09,1.54-2.42,3.81-4.25,5.43-6.61,2.77-4.05,3.37-9.39,2.55-14.28,1.74-2.21,2.97-4.98,3.69-7.74.77-2.93,1.15-6.04,2.64-8.65"/><path class="cls-13" d="m51.17,41.08v40.66c-.05,6.3-2.38,9.7-4.56,12.85-2.19,3.15-4.41,6.67-4.2,10.55-2.38-2.36-3.19-6.05-2.89-9.45.3-3.4,1.59-6.62,2.89-9.77,1.3-3.14,3.93-7.82,2.59-9.76.67.97-1.52,3.01-2.93,3.88-1.41.87-2.98,1.46-4.27,2.52-1.29,1.05-2.27,2.78-1.85,4.43-1.79-2.22-1.14-5.68.4-8.09,1.54-2.42,3.81-4.25,5.43-6.61,2.77-4.05,3.37-9.39,2.55-14.28,1.74-2.21,2.97-4.98,3.69-7.74.77-2.93,1.15-6.04,2.64-8.65"/><path class="cls-17" d="m49.69,44.41c.05,7.79.24,15.55,0,23.34-.26,5.21-.91,10.4-2.05,15.49-.6,2.54-1.37,5.06-2.39,7.45-.98,2.4-2.11,4.71-2.73,7.2-.64,2.49-.7,5.1-.21,7.64-.72-2.48-.86-5.19-.31-7.76.52-2.58,1.53-5.01,2.43-7.41.91-2.4,1.63-4.85,2.15-7.36,1.08-5.02,1.67-10.16,1.88-15.3.22-7.73.05-15.56.21-23.29.01,0,1.02,0,1.02,0Z"/><path class="cls-17" d="m46.96,54.28c.06,3.05.17,6.01.05,9.09-.39,6.13-3.18,12.13-7.67,16.21-1.07,1.02-2.11,2.09-2.91,3.32-.86,1.23-1.13,2.77-.76,4.24-.52-1.45-.33-3.1.46-4.43,1.49-2.64,3.97-4.48,5.58-7.01,3.45-5.04,4.43-10.86,4.24-16.9.02-1.51.04-3.02.09-4.52h.94Z"/><path class="cls-11" d="m82.92,31.11c-1.59,1.27-3.62,1.81-5.6,2.33-1.72.45-3.45.9-5.17,1.35-1.82.47-3.67.96-5.26,1.97-1.58,1.01-2.88,2.65-2.98,4.52-2.08-3.02-.92-5.87,1.7-7,.37-.16-.1-.77-.5-.67-4.69,1.15-9.6,2.69-12.65,6.15-.46.53-.89,1.1-1.26,1.73-1.55,2.6-1.95,5.7-2.75,8.62-.76,2.76-2.04,5.51-3.86,7.72-1.58,1.92-3.56,3.42-5.96,4.16,3.46-2.41,3.87-7.22,4.52-11.36.83-5.29,2.64-10.54,5.99-14.73,3.14-3.94,7.76-6.87,12.77-7.39.08,0,.08-.13,0-.13-4.03-.19-8.12.49-11.73,2.29,2.04-3.5,6.35-5.12,10.42-5.26,4.07-.14,8.06.94,12.08,1.57,4.02.63,8.48.61,12.1-1.23.74,1.88-.28,4.09-1.86,5.36Z"/><path class="cls-17" d="m84.1,25.12c-1.04,2.87-3.96,4.56-6.67,5.51-4.64,1.56-10.67,2.01-13.18,6.91-.5,1.03-.74,2.19-.82,3.36-.08-1.17.03-2.39.47-3.51,1.31-3.5,4.97-5.2,8.26-6.25,4.25-1.3,9.2-2.09,11.95-6.02Z"/><path class="cls-17" d="m77.11,26.74c-3.1,1.85-6.48,3.25-9.96,4.18-3.43.88-7.09.97-10.38,2.34-4.32,1.55-7.84,4.68-9.78,8.93-1.5,3.42-2.19,7.21-2.98,10.88-.78,4-1.89,6.89-5.61,8.9,3.54-2.13,4.57-5.05,5.21-8.99.68-3.75,1.24-7.58,2.68-11.12,1.93-4.56,5.51-7.95,10.08-9.67,2.28-.88,4.69-1.38,7.08-1.66,4.69-.57,9.25-2.05,13.66-3.8Z"/><path class="cls-17" d="m49.84,30.12c3.13-2.28,6.94-3.88,10.84-3.91,3.31.16,8.07.17,11.43.14v.05c-1.87.45-3.78.7-5.7.84-2.37.23-4.77-.05-7.12.07-3.3.32-6.42,1.45-9.45,2.82Z"/><path class="cls-13" d="m53.68,43.34l4.26,1.58"/><path class="cls-13" d="m76.25,43.69l-5.02,1.31"/><path d="m97.56,65.91h-46.39v3.92h46.39v-3.92Z"/><path class="cls-11" d="m62.24,103.82h11.51v13.07h-17.52s-.79-6.07,5.84-7.08l.18-5.99Z"/><path class="cls-11" d="m84.43,103.82h-10.68v13.07h16.27s.74-6.07-5.42-7.08l-.17-5.99Z"/><path class="cls-13" d="m71.23,103.82v10.46"/><path class="cls-13" d="m76.25,103.82v10.46"/><path class="cls-16" d="m55.02,65.93c-1.31.32-6.35,1.53-6.35,1.53l5.61,2.29c.61.25,1.32-.02,1.62-.63.35-.75.55-1.83-.33-2.98-.13-.17-.34-.25-.54-.2Z"/><path class="cls-16" d="m67.65,65.93l-5.19,1.46,4.51,2.32c.57.33,1.25.03,1.52-.68.27-.69.4-1.64-.11-2.7-.15-.31-.45-.45-.73-.39Z"/><path class="cls-16" d="m95.08,65.97l3.73,1.6-3.58,2.17c-.57.34-1.21-.16-1.37-1.11-.08-.5-.1-1.09.05-1.72.17-.75.69-1.13,1.17-.92Z"/><path d="m73.74,103.82h-11.28v2.61h11.28v-2.61Z"/><path d="m85.03,103.82h-11.28v2.61h11.28v-2.61Z"/><path class="cls-16" d="m62.78,105.17l-1.57.52,1.52.69c.5.22,1.09-.19.97-.71,0,0,0-.02,0-.03-.1-.38-.52-.6-.91-.47Z"/><path class="cls-16" d="m67.79,105.17l-1.57.52,1.52.69c.5.22,1.09-.19.97-.71,0,0,0-.02,0-.03-.1-.38-.52-.6-.91-.47Z"/><path class="cls-16" d="m72.17,105.17l1.57.52-1.52.69c-.5.22-1.09-.19-.97-.71,0,0,0-.02,0-.03.1-.38.53-.6.91-.47Z"/><path class="cls-16" d="m75.31,105.17l-1.57.52,1.52.69c.5.22,1.09-.19.97-.71,0,0,0-.02,0-.03-.09-.38-.52-.6-.91-.47Z"/><path class="cls-16" d="m84.71,105.17l1.57.52-1.52.69c-.5.22-1.09-.19-.97-.71,0,0,0-.02,0-.03.09-.38.52-.6.91-.47Z"/><path class="cls-16" d="m80.95,105.17l1.57.52-1.52.69c-.5.22-1.09-.19-.97-.71,0,0,0-.02,0-.03.1-.38.52-.6.91-.47Z"/><path class="cls-8" d="m36.13,106.04c0,2.14-.5,4.16-1.39,5.98,0,.02-.03,0-.03,0-.12.22-4.35,7.5-13.63,7.5-9.33,0-13.24-6.65-13.33-6.86,0,0,.01,0,.02,0h-.02c-1.09-1.97-1.71-4.22-1.71-6.6,0-2.95.95-5.69,2.57-7.96.68-.95,1.48-1.82,2.37-2.59.93-.79,1.54-1.93,1.57-3.16,0-.18,0-.36-.02-.53-.37-3.48-4.46-6.25-4.45-12.02,0,0-.14-4.75,1.65-6.7,1.79-1.95,3.1-.42,4.2,1.05,1.08,1.43,3.41,2.14,4.74,2.1.04,0,.08-.04.08-.08v-41.24c0-4.34-2.62-5.02-3.46-8.42-.84-3.4,2.89-4.81,4.21-5.96,1.11-.97,2.27-2,3.13-2.78.53-.47,1.35-.09,1.35.62l-.15,57.46c0,.06.06.1.12.07l.74-.37s0,0,0,0c3.79-1.31,8.31,1.17,8.6,5.3.29,4.13-.73,2.78-3.35,8.7-.05.11-.1.22-.14.33-.81,2-.17,4.27,1.46,5.67,3,2.61,4.89,6.35,4.89,10.5Z"/><path d="m28.61,105.79c0,.74-.12,1.46-.34,2.13-.09.28-.2.55-.32.81,0,0,0,0,0,0-.87,1.84-2.52,3.27-4.56,3.9-.72.22-1.5.34-2.31.34-.67,0-1.32-.08-1.93-.24-1.41-.35-2.65-1.09-3.61-2.08-.74-.78-1.31-1.7-1.65-2.73-.22-.67-.34-1.39-.34-2.13s.12-1.46.34-2.14c.06-.18.13-.36.2-.54.08-.18.15-.35.24-.52.09-.17.18-.34.28-.5.1-.16.21-.32.32-.47h0c.11-.16.24-.3.36-.44,0,0,0,0,0,0,1.38-1.58,3.46-2.58,5.78-2.58s4.21.92,5.59,2.38c.13.14.25.28.38.42t0,0c.12.15.23.3.34.46,0,0,0,0,0,0,.21.31.4.65.57.99.12.26.23.53.32.8.22.67.34,1.4.34,2.14Z"/><path class="cls-6" d="m27.35,97.29h-11.28v1.31h11.28v-1.31Z"/><path class="cls-4" d="m22.96,29.31c.35,0,.63-.29.63-.65s-.28-.65-.63-.65-.63.29-.63.65.28.65.63.65Z"/><path class="cls-4" d="m22.96,25.39c.35,0,.63-.29.63-.65s-.28-.65-.63-.65-.63.29-.63.65.28.65.63.65Z"/><path class="cls-3" d="m22.96,21.47c.35,0,.63-.29.63-.65s-.28-.65-.63-.65-.63.29-.63.65.28.65.63.65Z"/><path class="cls-14" d="m22.34,24.73c-1.25.65-1.26,4.96-1.25,6.85l.21,67.01"/><path class="cls-14" d="m22.34,20.81c-2.06,1.78-2.52,5.19-2.51,7.18l.42,70.6"/><path class="cls-14" d="m22.34,98.6V28.66"/><path class="cls-2" d="m31.48,103.15c.45.81,1.19,1.45,1.67,2.24.18.29.31.62.38.95.04.21.33.22.39.01.1-.37.15-.75.16-1.13,0-.23.33-.27.39-.05.59,2.08.52,4.47-.04,6.48,0,0-.06.36-.08.45,0,.01,0,.03-.01.04-2.52,4.18-7.51,7.36-13.49,7.36s-11.19-2.84-13.25-7.25c0,0,0-.01-.01-.03-.56-1.73-.32-3.93.65-5.48.22-.35.48-.69.58-1.08.29-1.05-.56-2.05-.79-3.12-.2-.93.12-1.94.79-2.62.08-.09.23,0,.18.11-.27.67-.12,1.55.23,2.23.46.92,1.19,1.72,1.43,2.72.47,1.96-1.06,4.21-.24,5.96.07.15.29.15.36,0,.58-1.1.99-2.29,1.23-3.5.04-.2.31-.23.38-.04.38.99.53,2.06.44,3.12-.09,1-.39,1.99-.26,2.98.11.85.69,1.72,1.49,1.94.16.04.3-.11.24-.27-.25-.62.09-1.43.46-2.05.31-.51.63-1.1.66-1.66,0-.19.25-.28.36-.12.46.67.68,1.5.59,2.31-.05.52-.23,1.03-.22,1.56,0,.45.19.94.57,1.18.1.06.24.02.29-.09.49-1,.89-2.04,1.21-3.1.04-.15.24-.2.35-.07.4.46.29,1.27.18,1.92-.12.73.11,1.74.82,1.8.07,0,.14-.03.18-.09.58-.84.83-1.89.72-2.9-.02-.2.22-.32.35-.16.58.7.87,1.63.76,2.52-.01.1.05.2.15.22.61.17,1.33-.22,1.59-.8.29-.64.27-1.36.43-2.04.12-.52.39-1.07.83-1.35.14-.09.32.04.29.21-.11.58.22,1.24.51,1.8.19.36.35.79.39,1.19.02.21.31.26.39.06.23-.64.2-1.42.16-2.12-.05-.85.04-1.85.56-2.45.14-.16.39-.04.35.17-.13.63.07,1.35.35,1.96.21.47.47.95.63,1.44.07.22.38.18.39-.05.02-.6-.06-1.21-.1-1.81-.09-1.35.1-2.71.52-4,.06-.18.32-.18.38,0,.25.7.13,1.51.07,2.28-.06.81.04,1.76.62,2.29.08.07.2-.01.17-.12-.27-.98-.21-2.05.19-2.98.51-1.2,1.57-2.41,1.09-3.62-.15-.4-.33-.75-.57-1.1-.18-.27-.38-.58-.52-.87-.38-.75-.54-1.6-.48-2.43.04-.44.14-.88.4-1.22.09-.12.26-.22.37-.14.07.06.08.17.09.26.02.83.24,1.38.64,2.1Z"/><path class="cls-9" d="m18.2,78.76c-2.04.03-4.08-1.06-5.13-2.84-.24-.4-.62-.72-1.07-.82-1.17-.28-1.7,1.03-1.88,2.08-.4,2.33-.59,4.83.45,6.95.43.88,1.04,1.64,1.6,2.45,1.01,1.47,1.8,3.1,2.35,4.8.48,1.49.12,3.14-.67,4.54-.03.05.04.09.08.05,1.94-2.87,2.19-6.9.27-9.78,1.62,1.65,2.73,3.8,3.16,6.08.02.13.21.12.22-.01.15-3.5.02-7.17-2.07-9.9.92.65,1.73,1.46,2.36,2.4.09.14.3.03.26-.12-.32-1.11-.69-2.21-1.1-3.29.28.22.58.42.89.6.31.18.7-.06.67-.42-.06-.81-.08-1.58-.06-2.42,0-.18-.14-.32-.31-.32Z"/><path class="cls-9" d="m23.62,78.92c0-.07.07-.12.14-.11.79.11,1.52-.45,2.27-.79,1.62-.72,3.65-.26,4.9,1,1.25,1.26,1.71,3.21,1.3,4.95-.43,1.81-1.7,3.27-2.75,4.81-1.05,1.53-1.94,3.4-1.49,5.2.16.64.36,1.27.7,1.82.07.11-.07.23-.17.16-1.08-.76-1.9-1.89-2.28-3.15-.35-1.16-.32-2.43.05-3.59.04-.13-.13-.22-.21-.11-.81,1.19-1.4,2.53-1.71,3.94-.03.13-.21.12-.24,0-.63-3.26.4-6.81,2.66-9.23.09-.1-.02-.26-.14-.19-.62.32-1.2.71-1.73,1.16-.09.08-.23,0-.2-.12.46-1.62,1.32-3.12,2.5-4.33.09-.1-.01-.25-.13-.19-1.04.47-2.29.76-3.36.71-.06,0-.11-.05-.12-.11-.05-.51-.02-1.3,0-1.82Z"/><path class="cls-1" d="m85.03,67.22v15.64c0,2.55,1.41,4.95,3.74,6.07,2.29,1.1,7.23.61,8.8-3.31"/><path class="cls-16" d="m81.44,65.93l4.84,1.57-4.53,2.19c-.51.32-1.14.09-1.42-.53-.25-.56-.44-1.32-.24-2.19.17-.72.75-1.16,1.34-1.04Z"/></svg>