<?xml version="1.0" encoding="UTF-8"?><svg id="Layer_2" xmlns="http://www.w3.org/2000/svg" viewBox="0 0 120.23 118.7"><defs><style>.cls-1{fill:#d9d9d9;stroke:#000;stroke-miterlimit:10;stroke-width:10px;}</style></defs><g id="Layer_1-2"><path class="cls-1" d="m19.7,5h81.64c7.66,0,13.89,6.22,13.89,13.89v80.92c0,7.66-6.22,13.89-13.89,13.89H18.89c-7.66,0-13.89-6.22-13.89-13.89V19.7c0-8.11,6.59-14.7,14.7-14.7Z"/><path d="m30.5,44c-1.73,0-3.17-.53-4.3-1.6-1.13-1.07-1.7-2.33-1.7-3.8,0-1.6.57-2.93,1.7-4,1.13-1.07,2.57-1.6,4.3-1.6h59.6c1.87,0,3.4.47,4.6,1.4,1.2.93,1.8,2.2,1.8,3.8s-.6,2.97-1.8,4.1c-1.2,1.13-2.73,1.7-4.6,1.7H30.5Z"/><path d="m30.55,64c-1.73,0-3.17-.53-4.3-1.6-1.13-1.07-1.7-2.33-1.7-3.8,0-1.6.57-2.93,1.7-4,1.13-1.07,2.57-1.6,4.3-1.6h59.6c1.87,0,3.4.47,4.6,1.4,1.2.93,1.8,2.2,1.8,3.8s-.6,2.97-1.8,4.1c-1.2,1.13-2.73,1.7-4.6,1.7H30.55Z"/><path d="m30.55,85c-1.73,0-3.17-.53-4.3-1.6-1.13-1.07-1.7-2.33-1.7-3.8,0-1.6.57-2.93,1.7-4,1.13-1.07,2.57-1.6,4.3-1.6h59.6c1.87,0,3.4.47,4.6,1.4,1.2.93,1.8,2.2,1.8,3.8s-.6,2.97-1.8,4.1c-1.2,1.13-2.73,1.7-4.6,1.7H30.55Z"/></g></svg>