<?xml version="1.0" encoding="UTF-8"?><svg id="Layer_1" xmlns="http://www.w3.org/2000/svg" viewBox="0 0 60.21 58.82"><defs><style>.cls-1{fill:#0094a8;}.cls-1,.cls-2{stroke:#000;stroke-linejoin:round;stroke-width:3px;}.cls-2{fill:#f393b2;}</style></defs><path class="cls-1" d="m2.97,44.3l2.72-22.24C7.3,8.92,20.04.9,34.12,4.17c14.08,3.27,24.2,16.6,22.6,29.74-1.61,13.14-14.35,21.16-28.43,17.89l-23.83-5.54c-.93-.21-1.59-1.09-1.49-1.96Z"/><path class="cls-2" d="m42.77,36.18c-1.91,1.7-4.38,2.89-6.97,3.16l-21.96,2.35.03-.21h-.12s2.87-19.66,2.87-19.66c.34-2.31,1.69-4.52,3.6-6.21,1.91-1.69,4.38-2.88,6.96-3.16,5.16-.55,8.8,2.75,8.12,7.37l-.46,3.14,3.39-.36c5.16-.55,8.8,2.75,8.12,7.37-.34,2.31-1.69,4.52-3.6,6.21Z"/></svg>