<?xml version="1.0" encoding="UTF-8"?><svg id="Layer_1" xmlns="http://www.w3.org/2000/svg" viewBox="0 0 114 36.14"><defs><style>.cls-1{stroke-width:1.86px;}.cls-1,.cls-2,.cls-3{stroke:#000;}.cls-2{fill:none;stroke-width:7.45px;}.cls-3{stroke-miterlimit:10;stroke-width:5.59px;}</style></defs><path class="cls-1" d="m82.04,9.75c.02-.92.37-1.75,1.05-2.5.68-.74,1.46-1.1,2.33-1.08.82.02,1.58.39,2.29,1.11l5.35,5.73c.4.33.76.51,1.07.51.41,0,.77-.14,1.09-.46l5.51-5.56c.68-.53,1.35-.78,2.02-.77.87.02,1.62.44,2.25,1.27.62.83.93,1.73.91,2.7-.02,1.03-.4,1.83-1.13,2.41l-5.1,4.43c-.31.32-.48.64-.48.96,0,.43.14.76.44.99l4.91,4.58c.71.61,1.05,1.43,1.03,2.46-.02.98-.36,1.86-1.02,2.66-.66.8-1.45,1.19-2.37,1.17-.62-.01-1.25-.3-1.91-.86l-5.27-5.81c-.3-.33-.66-.5-1.07-.51-.31,0-.67.15-1.09.46l-5.58,5.48c-.73.69-1.51,1.02-2.33,1-.87-.02-1.64-.42-2.29-1.19-.65-.77-.97-1.62-.95-2.54.02-.98.42-1.78,1.21-2.41l5.57-4.75c.31-.21.47-.53.48-.96,0-.32-.14-.65-.44-.99l-5.36-5.08c-.4-.39-.69-.79-.86-1.2-.17-.41-.25-.83-.24-1.27h0Z"/><rect class="cls-2" x="48.58" y="8.85" width="19.08" height="19.38" rx="1.67" ry="1.67"/><path class="cls-3" d="m14.43,28.97c-.48,0-.88-.15-1.2-.45-.32-.3-.47-.65-.47-1.06,0-.45.16-.82.47-1.12.32-.3.72-.45,1.2-.45h16.65c.52,0,.95.13,1.28.39.34.26.5.61.5,1.06s-.17.83-.5,1.15c-.33.32-.76.47-1.28.47,0,0-16.65,0-16.65,0Z"/></svg>