<?xml version="1.0" encoding="UTF-8"?><svg id="Layer_1" xmlns="http://www.w3.org/2000/svg" xmlns:xlink="http://www.w3.org/1999/xlink" viewBox="0 0 573 530"><defs><style>.cls-1{stroke-width:1.862255697426982px;}.cls-1,.cls-2,.cls-3,.cls-4,.cls-5,.cls-6,.cls-7,.cls-8,.cls-9,.cls-10,.cls-11{stroke:#000;}.cls-2{fill:url(#linear-gradient);}.cls-2,.cls-3{stroke-width:9.31127848713491px;}.cls-2,.cls-3,.cls-8{stroke-miterlimit:10;}.cls-3{fill:#d9d9d9;}.cls-4{stroke-width:10px;}.cls-4,.cls-5,.cls-9{fill:#e6e6e6;}.cls-5{stroke-linecap:round;}.cls-5,.cls-6,.cls-7{stroke-linejoin:round;}.cls-5,.cls-6,.cls-7,.cls-9,.cls-11{stroke-width:8px;}.cls-6{fill:#5463ad;}.cls-7{fill:#8beff2;}.cls-8{stroke-width:5.586767092280946px;}.cls-10{fill:none;stroke-width:7.449022789707929px;}.cls-11{fill:#f393b2;}</style><linearGradient id="linear-gradient" x1="284.672727653942275" y1="64.894995095109152" x2="284.672727653942275" y2="120.469726919446657" gradientUnits="userSpaceOnUse"><stop offset="0" stop-color="#38a4ad"/><stop offset=".173321779614945" stop-color="#50adb5"/><stop offset=".541239048794492" stop-color="#8fc5c9"/><stop offset="1" stop-color="#e6e6e6"/></linearGradient></defs><path class="cls-3" d="m29.460682584270216,64.60525472946847h512.202230337077708c7.664797418816761,0,13.887640449440369,6.222843030623622,13.887640449440369,13.887640449440369v372.224719101119263c0,7.664797418816761-6.222843030623608,13.887640449440369-13.887640449440369,13.887640449440369H28.651693820224864c-7.664797418814739,0-13.887640449436731-6.222843030622016-13.887640449436731-13.887640449436731V79.301883942950553c0-8.111290472338197,6.585338741143886-14.696629213482083,14.696629213482083-14.696629213482083Z"/><path class="cls-2" d="m29.702970442691367,64.894995095109152h510.748503186546259c7.664797418814715,0,13.887640449436731,6.222843030621988,13.887640449436731,13.887640449436731v41.687091374900774H15.006341229209283v-40.878102610855422c0-8.111290472338197,6.585338741143882-14.696629213482083,14.696629213482083-14.696629213482083Z"/><path class="cls-1" d="m498.036317510996923,83.653847691092778c.019159730031788-.921813433111311.371215577012663-1.753222420958991,1.053688556607085-2.495607526068852.681873850150623-.743722154025818,1.459849548025886-1.104143773754913,2.333355453038166-1.083924452486826.82024334982998.018986435816259,1.58304520125148.388609314055429,2.287765191541439,1.10951540233691l5.350705645816561,5.733478965144968c.40368647082596.334185115558284.759984244058614.505183677214518,1.067653827538379.512305403717619.410434984054518.009500470179773.773495014949731-.144846885732477,1.088539729951663-.462395300075514l5.507773519926559-5.56350987764381c.677978552242166-.526149098914175,1.350948508064903-.78116209532709,2.018923611903119-.765700261417805.872252668418696.020190312197883,1.62076849267487.443732914796783,2.246160346632678,1.271303584515408.624138617374228.827541660659335.927025083653461,1.728361215851692.906752055102515,2.703737696365351-.02137258264338,1.028278255735131-.397943384426981,1.832656174599833-1.12844542433777,2.412501493461605l-5.100002346924157,4.434351718062317c-.314431841127771.31822419107084-.475342199672014.640001993122496-.482090712905119.964686638501007-.00900259912305.433133284568612.138396988529166.761386045467589.441544655804137.986066322539045l4.912542118839156,4.584739683821681c.705734584011225.611767167842117,1.048521586355491,1.432796292448984,1.027121514855025,2.462397092560423-.020273028554584.975376480515479-.360310678679525,1.861975655383503-1.018219351070002,2.659179766005764-.659175653406237.797836373745668-1.449648109237387,1.186417111495757-2.373910096245709,1.165022922923526-.615965785239496-.014257957531299-1.252600579784485-.300907975686641-1.908079506441027-.857261452098101l-5.27131441266647-5.813016882242664c-.301547688530263-.331820876412166-.657845461772013-.502819438072038-1.06828044582744-.512319908248173-.307669583476127-.007121726506739-.670729614367701.147225629412787-1.08791311166533.462409804609706l-5.583783624239913,5.480374835955445c-.733981873539051.686942404608999-1.511421538794821,1.021574408923698-2.3316648886248,1.002587973100162-.873505905015008-.020219321268087-1.635730490531387-.417615631487934-2.286074627123526-1.190851881738126-.650943266035938-.774573299169788-.968115759486864-1.621473129998776-.948983518297609-2.541964018730141.020273028547308-.975376480520936.422535180483465-1.779159713461922,1.20553321920579-2.411378707891345l5.568568544507798-4.748346521420899c.312191499673645-.210436824070712.473088113788435-.531553353934214.482090712911486-.964686638501007.006748513236744-.324684645378511-.140637329992387-.653598678465642-.441544655809594-.986066322537226l-5.364230161128035-5.082787130006182c-.401919065167021-.389056202804568-.688892093586219-.788683519584083-.860919085265778-1.198881950327632-.170773755087794-.410169421671526-.252265334733238-.832827187618022-.243262735609278-1.265960472186634Z"/><rect class="cls-10" x="464.582501184682769" y="82.748586935896128" width="19.082889843293742" height="19.381059997092962" rx="1.668539325837628" ry="1.668539325837628"/><path class="cls-8" d="m430.430933232542884,102.869136295724275c-.484659319691673,0-.884753317185641-.149125944521074-1.201191297021978-.446468529022241-.316437979835428-.299161193581313-.474656969753596-.651971355007845-.474656969753596-1.06206770243989,0-.446468529020422.158218989918169-.819283390323108.474656969753596-1.116625974824274.316437979836337-.299161193579494.716531977330305-.447377833561404,1.201191297021978-.447377833561404h16.648456818453269c.521031501281868,0,.950223244048175.130030549185904,1.28484731467961.391000952096874.335533375170598.260061098371807.502845410486771.614689868876667.502845410486771,1.061158397898907,0,.447377833561404-.167312035316172.828376435720202-.502845410486771,1.145723720097521-.334624070631435.315528675295354-.763815813397741.474656969754506-1.28484731467961.474656969754506h-16.648456818453269Z"/><path class="cls-6" d="m209.798933874385511,86.850227634266957l-34.548807323762958.619125697847267c-1.038511574439326-22.682713873999091-19.951744234338548-40.553018255921415-42.803760401648105-40.143502803644878-22.844486763451641.409380522944048-41.105298267910257,18.945855688112715-41.330441033211173,41.651214652794806l-35.067831168798875.628426771459999c-.760933132467471-42.462027131847208,33.043177691288292-77.499806690520927,75.497629508283353-78.260604070923364,42.462027131850846-.76093313246929,77.492277286673925,33.043312620618963,78.253210419137758,75.50533975246617Z"/><path class="cls-11" d="m194.25427087875596,87.208244905817082l-27.469683849480134.492265536797277c-.825718362913904-18.034977969800821-15.86358976815427-32.243619300463251-34.033179634354383-31.918014427910748-18.163603253076872.32549759052381-32.682735973397939,15.063809906181632-32.86174651132751,33.116792939830702l-27.882358614191617.499660800820493c-.605016329034697-33.761468232156403,26.272560903646081-61.619932874518781,60.028006018936139-62.224841267367083,33.761468232156403-.605016329034697,61.613946261384626,26.272668185678413,62.218962590417505,60.034136417829359Z"/><path class="cls-5" d="m175.878518005235492,87.527014438618608l-19.206620741022562.344188798129835c-.577336802354694-12.609936970398849-11.091716742634162-22.544524742812428-23.795773458110489-22.31686397566591-12.699870915286738.227585756272674-22.851552207863278,10.532515968081498-22.976715188609887,23.155041959698792l-19.495160199234306.34935951767693c-.423023404186097-23.60579464795228,18.369600317819277-43.084248340570412,41.971183642406686-43.507196276486866,23.605794647957737-.423023404189735,43.080062540384461,18.36967532869312,43.503085944570557,41.975469976647219Z"/><path class="cls-9" d="m232.385856316325771,80.198428711671113c0,3.85216908444454-1.561596027979249,7.341179615774308-4.085640594415963,9.867789107251156-2.526609491476847,2.524028733569139-6.013007599156481,4.085640594415963-9.867773274379942,4.085640594415963l-52.590658210147012.000001845932275c-7.632856933851144.000000267915311-14.081022519696489-6.002354273459787-14.252019715520873-13.633295560854094-.089154288298232-3.978609919589871,1.488222840640447-7.594170035130446,4.08464623787404-10.187925093992817,2.524012900697926-2.526625324348061,6.015620022806615-4.088237185194885,9.867789107247518-4.088237185194885l5.594299760101421-.000000282601832c.018244299901198-.000000000924047.033251763510634-.014026246833964.034629655017852-.032218440046563.90066824151836-11.891451997478725,11.147759614859751-21.267583776349056,23.655389731027753-21.267583776349056,12.507894344547822,0,22.757746453147774,9.376527931653982,23.658045673582819,21.268327641746509.001355037013127.017898303512993.016044197080191.031530453377854.033993404374996.031636996283851,7.666416098165428.045506313739679,13.867298225237391,6.27763266819602,13.867298225237391,13.955864153409493Z"/><path class="cls-7" d="m162.61517029062145,116.792636661775205h10.247201234988125c5.655573026873753,0,10.247180772182901,4.591607745309119,10.247180772182901,10.247180772182887v.000020520625711c0,5.655573009710324-4.59160773137458,10.247180741084932-10.247180741084918,10.247180741084932h-.000020810045498c-5.655572852390094,0-10.24718045604061-4.591607603650516-10.24718045604061-10.24718045604061v-10.24720157785292h0Z" transform="translate(140.460930483765992 -85.023042834445704) rotate(44.999998227658246)"/><path class="cls-7" d="m196.682586005777296,87.296919748159468h10.247201239776786c5.655573042099178,0,10.247180799769382,4.591607757670218,10.247180799769382,10.247180799769382v.000020481764281c0,5.655573026885335-4.591607745318527,10.247180772203848-10.247180772203848,10.247180772203848h-.000020795140045c-5.655572861309963,0-10.247180472202274-4.591607610892311-10.247180472202274-10.247180472202274v-10.247201581535236h0Z" transform="translate(129.582424298515093 -117.751437699283144) rotate(44.999998308320421)"/><path class="cls-4" d="m524.716293876957934,460.176562560296588c0,6.236926228321863-2.528331184700619,11.885873825561248-6.614932632554883,15.976628063157477-4.090754237599867,4.086575813355012-9.735472141588616,6.614932632557611-15.976602428654587,6.614932632557611l-85.147886389567248.000002988691449c-12.358119429390172.000000433769856-22.798142228319193-9.718223675852641-23.0749984286158-22.073241542107098-.144346913871232-6.441642621543906,2.409534956772404-12.29548268421604,6.613322701044126-16.494950205456917,4.086550178851212-4.090779872101848,9.739701834839252-6.619136691305357,15.976628063159296-6.619136691305357l9.057555402683647-.000000457550414c.02953877415348-.000000001492481.053836888117075-.022709456635312.056067789063491-.052163866475894,1.458243720724568-19.253077222238971,18.048988194657795-34.433678314745521,38.299700096359629-34.433678314745521,20.251139705576861,0,36.846353999444545,15.181242491065859,38.304000249699129,34.434882683895921.002193897948018.028978582245145.025976656622333.051049968820735.055037655583874.051222469102868,12.412454020507539.073677846298779,22.452107921799325,10.163918296876545,22.452107921799325,22.595502240235874Z"/><path class="cls-7" d="m426.682586011133992,478.959841112694562h10.247201257338645c5.65557302249249,0,10.247180764244604,4.591607741752114,10.247180764244604,10.247180764244604v.000020486791868c0,5.655573023734348-4.591607742760289,10.247180766494637-10.247180766494637,10.247180766494637h-.000020815841197c-5.655572843121661,0-10.247180439247416-4.591607596125755-10.247180439247416-10.247180439247416v-10.247201578283693h0Z" transform="translate(473.895357870877888 -165.670587100648106) rotate(44.99999818598743)"/><path class="cls-7" d="m480.28932758300914,502.656470325607756h10.247201260699626c5.65557302218906,0,10.247180763694814,4.591607741505754,10.247180763694814,10.247180763694814v.000020484635911c0,5.655573025847389-4.591607744475823,10.247180770323325-10.247180770323268,10.247180770323325h-.000020813592073c-5.655572843801451,0-10.247180440479099-4.591607596677704-10.247180440479099-10.247180440479156v-10.247201578174895h0Z" transform="translate(506.352454484226087 -196.635694908424853) rotate(44.999998189730661)"/></svg>