<?xml version="1.0" encoding="UTF-8"?><svg id="Layer_1" xmlns="http://www.w3.org/2000/svg" viewBox="0 0 144 230.04"><defs><style>.cls-1,.cls-2,.cls-3,.cls-4,.cls-5,.cls-6,.cls-7,.cls-8,.cls-9,.cls-10,.cls-11{stroke:#000;stroke-miterlimit:10;}.cls-1,.cls-8{stroke-width:7px;}.cls-1,.cls-8,.cls-9{stroke-linecap:round;}.cls-1,.cls-9{fill:#f5a2a4;}.cls-2{stroke-width:3px;}.cls-2,.cls-8,.cls-10{fill:none;}.cls-12{fill:#fff;}.cls-3{fill:#96509c;}.cls-3,.cls-4,.cls-5,.cls-6,.cls-7,.cls-10{stroke-width:2px;}.cls-4{fill:#4a9ad1;}.cls-5{fill:#6fbe64;}.cls-6{fill:#dea7cb;}.cls-7,.cls-13{fill:#f9cbd0;}.cls-9{stroke-width:9px;}.cls-13{opacity:.56;}.cls-13,.cls-14{isolation:isolate;}.cls-14{fill:#512110;opacity:.51;}.cls-11{fill:#fdfefe;stroke-width:6px;}</style></defs><path class="cls-9" d="m42.89,22.43v11.44S9.19,44.82,9.19,76.69v78.85c0,31.86,33.7,42.81,33.7,42.81v11.44c0,5.78,4.62,10.83,10.89,11.53.28.03.57.06.86.07,8.19.53,12.17-6.38,12.17-6.38v-13.25h.47v13.22c.36,2.43,5.39,6.71,13.65,6.4,2.06-.07,3.74-.55,5.11-1.23,3.36-1.65,5.32-4.99,5.32-8.48v-13.73s29.59-9.49,31.83-42.2v-79.28c-2.24-32.71-31.83-42.2-31.83-42.2v-13.73c0-3.47-1.42-5.9-3.24-7.58-4.42-4.09-11.63-4.59-16.64-1.13-2.58,1.78-4.01,4.08-4.2,5.4v13.2h-.47s0-13.24,0-13.24c0,0-.31-3.5-4.81-5.79-5.33-2.71-12.13-1.87-16.03,2.42-1.75,1.93-3.08,4.69-3.08,8.62Z"/><path class="cls-11" d="m81.2,114.74c-13.89,0-25.15-10.29-25.15-22.98s11.26-22.98,25.15-22.98,25.15,10.29,25.15,22.98-11.26,22.98-25.15,22.98Z"/><path d="m66.19,73.94c-3.22-8.99-14.64-13.86-24.1-9.48-1.5.59-3.03,1.56-4.73,1.28-1.1-.14-2.04-.43-3-1.07.67,2.45,3.97,3.65,6.49,2.95,10.06-2.88,17.96-.39,25.35,6.32Z"/><path d="m96.66,74.1c7.4-6.72,15.29-9.2,25.35-6.31,2.52.69,5.82-.51,6.49-2.95-.97.65-1.9.93-3,1.07-1.71.28-3.23-.69-4.73-1.28-9.47-4.4-20.88.48-24.1,9.47Z"/><path d="m90.87,104.03c-2.47,0-4.47-1.83-4.47-4.08s2-4.08,4.47-4.08,4.47,1.83,4.47,4.08-2,4.08-4.47,4.08Z"/><path class="cls-13" d="m122.8,122.77l-9.4,43.58s-5.72,4.89-16.72,4.94c-13.24.07-18.87-3.12-18.87-3.12l-9.96-45.4"/><path class="cls-7" d="m95.95,129.92c-15.18,0-27.48-3.2-27.48-7.15s12.3-7.15,27.48-7.15,27.48,3.2,27.48,7.15-12.3,7.15-27.48,7.15Z"/><path class="cls-2" d="m96.67,122.52l-5.8-22.57"/><path d="m97.98,167.34c-1.31,0-2.37-.97-2.37-2.17s1.06-2.17,2.37-2.17,2.37.97,2.37,2.17-1.06,2.17-2.37,2.17Z"/><path d="m89.21,158.09c-1.31,0-2.37-.97-2.37-2.17s1.06-2.17,2.37-2.17,2.37.97,2.37,2.17-1.06,2.17-2.37,2.17Z"/><path d="m105.91,159.62c-1.31,0-2.37-.97-2.37-2.16s1.06-2.17,2.37-2.17,2.37.97,2.37,2.17-1.06,2.16-2.37,2.16Z"/><path d="m86.84,163.6c-.76,0-1.38-.57-1.38-1.26s.62-1.27,1.38-1.27,1.39.57,1.39,1.27-.62,1.26-1.39,1.26Z"/><path d="m84.81,148.29c-.76,0-1.38-.57-1.38-1.27s.62-1.27,1.38-1.27,1.38.57,1.38,1.27-.62,1.27-1.38,1.27Z"/><path d="m102.15,153.25c-.76,0-1.38-.57-1.38-1.26s.62-1.27,1.38-1.27,1.39.57,1.39,1.27-.62,1.26-1.39,1.26Z"/><path d="m109.36,163.6c-.77,0-1.39-.57-1.39-1.26s.62-1.27,1.39-1.27,1.38.57,1.38,1.27-.62,1.26-1.38,1.26Z"/><path class="cls-12" d="m107.27,157.45c-.28,0-.51-.21-.51-.46s.23-.46.51-.46.5.21.5.46-.23.46-.5.46Z"/><path class="cls-12" d="m101.5,152.45c-.28,0-.51-.21-.51-.46s.23-.46.51-.46.51.21.51.46-.23.46-.51.46Z"/><path class="cls-12" d="m110.03,162.62c-.28,0-.51-.21-.51-.46s.23-.46.51-.46.51.21.51.46-.23.46-.51.46Z"/><path class="cls-14" d="m95.61,144.21c-12.79,0-23.17-1.55-23.17-3.45s10.37-3.45,23.17-3.45,23.16,1.55,23.16,3.45-10.37,3.45-23.16,3.45Z"/><path class="cls-12" d="m88.23,155.45c-.28,0-.51-.21-.51-.46s.23-.46.51-.46.5.21.5.46-.23.46-.5.46Z"/><path class="cls-12" d="m98.84,166.65c-.28,0-.5-.21-.5-.46s.23-.46.5-.46.51.21.51.46-.23.46-.51.46Z"/><path class="cls-12" d="m86.19,163.09c-.28,0-.5-.21-.5-.46s.23-.46.5-.46.5.21.5.46-.23.46-.5.46Z"/><path class="cls-12" d="m85.45,147.23c-.28,0-.51-.21-.51-.46s.23-.46.51-.46.51.21.51.46-.23.46-.51.46Z"/><path d="m109.36,149.39c-1.31,0-2.37-.97-2.37-2.17s1.06-2.17,2.37-2.17,2.37.97,2.37,2.17-1.06,2.17-2.37,2.17Z"/><path class="cls-12" d="m110.53,147.23c-.28,0-.5-.21-.5-.46s.23-.46.5-.46.51.21.51.46-.23.46-.51.46Z"/><path d="m96.67,123.75c-3.28,0-5.95-.55-5.95-1.23s2.66-1.23,5.95-1.23,5.95.55,5.95,1.23-2.66,1.23-5.95,1.23Z"/><path class="cls-10" d="m123.17,123.75l-9.13,42.59s-10.32,9.84-35.58,1.82l-9.75-44.41"/><path class="cls-8" d="m39.59,102.91v34.91c0,5.69-3.38,11.04-8.97,13.54-5.5,2.47-17.35,1.37-21.12-7.39"/><path class="cls-4" d="m38.96,149.72c2.09,0,3.8-1.56,3.8-3.47v-1.65c0-1.91-1.71-3.47-3.8-3.47s-3.8,1.56-3.8,3.47v1.65c0,1.9,1.71,3.47,3.8,3.47Z"/><path class="cls-6" d="m30.68,155.46c2.09,0,3.8-1.56,3.8-3.47v-1.66c0-1.91-1.71-3.47-3.8-3.47s-3.8,1.56-3.8,3.47v1.66c0,1.9,1.71,3.47,3.8,3.47Z"/><path class="cls-5" d="m20.74,155.81c2.09,0,3.8-1.56,3.8-3.47v-1.65c0-1.91-1.71-3.47-3.8-3.47s-3.8,1.56-3.8,3.47v1.65c0,1.9,1.71,3.47,3.8,3.47Z"/><path class="cls-3" d="m12.24,154.02c2.09,0,3.8-1.56,3.8-3.47v-1.65c0-1.91-1.71-3.47-3.8-3.47s-3.8,1.56-3.8,3.47v1.65c0,1.91,1.71,3.47,3.8,3.47Z"/><path class="cls-1" d="m122.8,145.63c-8.4,0-15.21-5.85-15.21-13.07s6.81-13.07,15.21-13.07,15.21,5.85,15.21,13.07-6.81,13.07-15.21,13.07Z"/><path class="cls-6" d="m112.67,129.09c0-1.91-1.71-3.47-3.8-3.47h-1.81c-2.09,0-3.8,1.56-3.8,3.47s1.71,3.47,3.8,3.47h1.81c2.08,0,3.8-1.56,3.8-3.47Z"/><path class="cls-5" d="m112.47,137.3c0-1.91-1.71-3.47-3.8-3.47h-1.82c-2.09,0-3.8,1.56-3.8,3.47s1.71,3.47,3.8,3.47h1.81c2.09,0,3.81-1.56,3.81-3.47Z"/><path class="cls-3" d="m117.18,145.06c0-1.91-1.71-3.47-3.8-3.47h-1.81c-2.09,0-3.8,1.56-3.8,3.47s1.71,3.47,3.8,3.47h1.81c2.09,0,3.8-1.56,3.8-3.47Z"/><path class="cls-4" d="m117.18,121.61c0-1.91-1.71-3.47-3.8-3.47h-1.81c-2.09,0-3.8,1.56-3.8,3.47s1.71,3.47,3.8,3.47h1.81c2.09,0,3.8-1.56,3.8-3.47Z"/></svg>