<?xml version="1.0" encoding="UTF-8"?><svg id="Layer_1" xmlns="http://www.w3.org/2000/svg" viewBox="0 0 224.65 243.68"><defs><style>.cls-1,.cls-2,.cls-3,.cls-4,.cls-5,.cls-6{stroke:#000;stroke-miterlimit:10;}.cls-1,.cls-7{fill:none;}.cls-1,.cls-7,.cls-4,.cls-5,.cls-6{stroke-width:3px;}.cls-1,.cls-4{stroke-linecap:round;}.cls-2{fill:#f4f2f3;stroke-width:2px;}.cls-3{stroke-width:4px;}.cls-3,.cls-4{fill:#7caed3;}.cls-7{stroke:rgba(0,0,0,.7);}.cls-5{fill:#97d2ff;}.cls-6{fill:#fdf8c1;}</style></defs><path class="cls-6" d="m95.11,7.28c4-.89,6.24,4.64,2.8,6.92-24.86,16.46-41.38,45.59-41.38,78.77,0,51.37,39.58,93.02,88.4,93.02,26.64,0,50.53-12.4,66.73-32.01,3.28-3.98,9.43-.23,7.76,4.71-15.19,44.9-55.92,77.05-103.78,77.05-60.81,0-110.12-51.92-110.12-115.96,0,0-.9-92.5,89.59-112.5Z"/><path class="cls-7" d="m75.52,27.12c-22.01,15.12-45.59,81.85-2.83,131.82"/><ellipse cx="78.66" cy="24.49" rx="1.89" ry="1.97"/><path class="cls-7" d="m209.14,168.47c-7.55,17.75-57.22,82.18-133.93,51.61"/><path class="cls-4" d="m182.35,157.85h-21.32c-3.98,0-7.2,3.25-7.2,7.27v1.71c0,4.01,3.22,7.27,7.2,7.27h21.32c3.98,0,7.2-3.25,7.2-7.27v-1.71c0-4.01-3.22-7.27-7.2-7.27Z"/><path class="cls-3" d="m179.66,141.68c.36,2.97-2.21,5.4-5.2,5.05-3.63-.43-7.41.75-10.12,3.48-.01.01-.03.03-.04.04-1.65,1.68-4.54.49-4.41-1.84.15-2.67,1.19-5.31,3.17-7.46,3.56-3.87,9.23-4.93,13.9-2.9,1.49.65,2.51,2.03,2.7,3.63Z"/><path class="cls-4" d="m79.97,157.85h-24.55c-3.98,0-7.2,3.25-7.2,7.27h0c0,4.02,3.22,7.27,7.2,7.27h24.55c3.98,0,7.2-3.25,7.2-7.27h0c0-4.02-3.22-7.28-7.2-7.28Z"/><path class="cls-5" d="m190.46,175.71v2.74c0,4.08-4.02,7.42-8.94,7.42h-27.69c-4.61,0-8.44-2.94-8.9-6.68.42,3.73,3.92,6.68,8.15,6.68H52.15c-3.97,0-7.22-3.34-7.22-7.42v-2.74c0-4.08,3.25-7.42,7.22-7.42h12.57v-30.36c0-22.03,15.24-24.22,15.24-24.22v-7.8c0-2.43,1.94-4.42,4.3-4.42h.63c2.36,0,4.29,1.99,4.29,4.41v6.54c0,.35.13.67.36.9.22.23.53.37.87.37.46,0,.83-.38.83-.85v-6.95c0-2.43,1.93-4.42,4.3-4.42h.63c2.36,0,4.29,1.99,4.29,4.41v7.81s14.95,3.43,15.46,21.05v13.05h31.39s19.15,0,22.55,20.48h11.66c4.92,0,8.94,3.34,8.94,7.42Z"/><path class="cls-2" d="m96.86,143.75c-.57,5.87-5.18,10.62-10.9,11.2-7.72.79-14.15-5.83-13.38-13.76.56-5.87,5.18-10.62,10.9-11.2,7.72-.79,14.15,5.83,13.39,13.76Z"/><path class="cls-1" d="m94.98,132.49h3.87"/><path class="cls-1" d="m70.13,132.51h3.87"/><path class="cls-1" d="m85.6,144.62l-5.03,4.31"/><path class="cls-1" d="m80.56,144.62l5.03,4.31"/></svg>