<?xml version="1.0" encoding="UTF-8"?><svg id="Layer_1" xmlns="http://www.w3.org/2000/svg" viewBox="0 0 429.04 388.34"><defs><style>.cls-1{fill:#010101;}.cls-2{fill:#fefeff;}.cls-3{fill:#fcf7c0;}.cls-4{fill:#69004c;}.cls-5{fill:#cf48aa;}</style></defs><path class="cls-5" d="m165.4,361.95c.31.07.55.37.93.25,2.83-.87,5.55-.86,8.03,1,.53.39.64.04.7-.39.49-3.73,1.74-7.21,3.56-10.48,2.17-3.9,7.23-6.09,11.64-5.22,1.89.37,3.72.86,5.34,1.9.8.52.93.05,1.05-.52.28-1.32.58-2.58,1.24-3.82,2.16-4.01,5.6-5.74,9.97-5.94,2.98-.14,5.84.28,8.39,1.99,1.01.68,1.8,1.59,2.74,2.54,0-1.09.02-2.18,0-3.26-.1-5.59.89-10.96,3.57-15.89,3.51-6.46,9.15-10,16.29-11.4,5.99-1.17,11.49-.22,16.46,3.38.95.69,1.77,1.52,2.5,2.43.59.74.92.59,1.35-.16,2.96-5.12,7.43-7.59,13.31-7.41,5.04.16,8.86,2.51,11.51,6.79.37.59.62,1.28,1.26,1.67,1.23,3.52,2.24,7.08,1.98,10.88-.64,1.57-.59,3.28-.95,4.91-.06.28.02.57.25.79-.41.84-.8,1.68-.47,2.75.27-.24.45-.4.64-.56,1.73-1.51,3.52-2.83,6.03-2.49,1.46.2,2.74.7,3.62,1.93.91,1.26,1.62,2.61,1.67,4.22.02.62.25,1.18.99.74,2.05-1.22,3.72-.78,5.15,1.01.36.45.59.5.88-.1.4-.82.92-1.58,1.56-2.24,2.62-2.74,5.92-3.38,9.51-2.97,2.28.26,4.48.79,6.38,2.26,2.99,2.32,4.19,5.46,4.49,9.1.06.76-.41,1.77.27,2.23.59.4,1.52.27,2.3.38,3.88.57,7.01,4.05,6.73,7.81-.08,1.03.02,2.08,0,3.12-.01.72.22,1.16.98,1.36,1.52.41,2.85,1.14,3.74,2.53.36.57.66.53,1.15.01,2.18-2.31,4.68-3.69,8.08-3.43,2.5.19,4.06,1.38,5.28,3.34.95,1.52,1.59,3.16,1.96,4.91.15.74.42.95,1.2.63,2.24-.92,4.56-1.53,7.02-1.3.79.07,1.45-.16,2.11-.59,2.42-1.6,5.15-2.3,8-2.39,1.27-.04,1.39-.58,1.15-1.49-.46-1.76-.85-3.54-1.07-5.34-.42-3.46-.75-6.94.15-10.37.8-3.03,2.25-5.64,5.41-6.79,2.67-.97,5.47-1.42,8.3-1.46,1.24-.02,1.5-.42,1.52-1.59.09-5.17,2.27-9.26,6.67-12.07.52-.33.63-.69.58-1.23-.21-2.02-.33-4.04.24-6.03,1.01-3.48,2.93-6,6.76-6.71,2.84-.53,5.48-.18,8.01,1.19.32.17.68.63,1.07.09,1.25-1.77,2.99-2.76,5.06-3.24.58-.13.74-.52.43-1.03-.61-1.01-.82-2.15-1.01-3.28-.4-2.27-1.22-4.5-1.05-6.83.17-2.32.33-4.72,2.37-6.38.93-.75.25-1.29-.34-1.75-2.44-1.92-4.69-3.98-6.55-6.51-1.37-1.87-2.77-3.69-3.65-5.84-.93-2.23-1.86-4.48-2.07-6.93-.46-5.32.84-10.2,3.76-14.65.27-.42.6-.98.37-1.4-.5-.94-.35-1.93-.5-2.9-.59-4.02-.13-7.79,2.38-11.19,2.39-3.23,6.79-4.32,10.26-2.35.49.28.86.35,1.46,0,1.05-.62,2.16-1.24,3.47-1.18v147.98c-1.29.01-2.58.03-3.87.03-141.23,0-282.46,0-423.69,0-.21,0-.41-.02-.62-.03-.02-1.5-.05-3-.05-4.5,0-26.2,0-52.4,0-78.6,0-34.41,0-68.82.04-103.22,0-1.65-.05-3.33.27-5.04.85.42,1.46.92,1.91,1.58,1.38,1.98,2.47,4.1,3.34,6.35,1.67,4.31.98,8.56-.4,12.77-.53,1.61-.55,1.6,1.02,2.2,4.92,1.89,7.64,5.41,7.29,10.13-.4,5.38-2.19,10.16-7.44,12.82-.87.44-.76.85-.08,1.32.62.42,1.23.87,1.66,1.49,1.72,2.5,2.95,5.19,3.09,8.28.11,2.45.17,4.92-.29,7.34-.18.94,0,1.16.92,1.15,1.65-.02,3.31.15,4.84.77,3.73,1.53,5.43,4.68,6.36,8.36.56,2.19.66,4.45.83,6.73.26-.05.43-.06.58-.11,4.67-1.36,8.73-.39,12.26,3,1.63,1.57,2.16,3.69,3.08,5.61.88,1.84,1.43,3.82,1.7,5.86.19,1.41.33,1.5,1.65.94,3.8-1.61,7.26-1.24,10.44,1.54,2.65,2.32,3.78,5.41,4.67,8.64.21.77.48,1.14,1.31,1.14.99,0,2,.06,2.98.23,3.09.56,5.78,1.82,7.52,4.59,2.82,4.48,3,9.51,2.84,14.56-.05,1.45-.05,2.91-.14,4.36-.04.58.35.86.75,1.2,2.71,2.34,3.82,5.23,3.07,8.8-.47,2.23-1.6,4.08-2.97,5.83-.38.49-.97,1.06-.02,1.48,1.91.85,3.18,2.37,4.37,3.98.52.7.89.9,1.7.37,2.02-1.33,4.09-1.18,6.07.15.72.48,1.38,1.06,2.07,1.6.35.28.63.49,1.01-.03,1.59-2.14,5.23-3.26,7.91-2.46,2.86.86,4.3,3.12,5.44,5.63.65,1.43.58,1.47,1.9.68,3.27-1.94,7.58-1.12,9.71,1.86,1.09,1.52,1.1,3.28,1,5.04-.06,1.03.04,1.35,1.25.94,3.54-1.2,6.77-.63,9.55,2.06,2.25,2.18,3.46,4.86,3.87,7.9.17,1.21.6,1.05,1.33.57.24-.16.49-.31.73-.48,2.43-1.69,8.21-1.73,10.73.89.29.3.56.9,1.09.64.41-.2.38-.75.47-1.21.52-2.65,1.76-4.81,4.48-5.66,2.12-.66,4.35-.63,6.56-.43,2.21.2,4.33.78,6.44,1.4.48.14.99.25.98-.47-.03-2.91,1.59-5.18,2.88-7.59Z"/><path class="cls-4" d="m428.99,240.99c-1.31-.06-2.42.56-3.47,1.18-.59.35-.96.28-1.46,0-3.48-1.97-7.88-.88-10.26,2.35-2.52,3.4-2.98,7.17-2.38,11.19.14.97,0,1.96.5,2.9.22.41-.1.98-.37,1.4-2.92,4.46-4.21,9.33-3.76,14.65.21,2.45,1.14,4.7,2.07,6.93.89,2.14,2.28,3.97,3.65,5.84,1.86,2.54,4.12,4.59,6.55,6.51.59.46,1.27,1,.34,1.75-2.05,1.67-2.2,4.06-2.37,6.38-.17,2.33.65,4.56,1.05,6.83.2,1.13.4,2.27,1.01,3.28.31.51.15.89-.43,1.03-2.08.48-3.81,1.48-5.06,3.24-.38.54-.75.08-1.07-.09-2.53-1.37-5.16-1.72-8.01-1.19-3.83.71-5.75,3.22-6.76,6.71-.58,1.99-.45,4.01-.24,6.03.05.54-.06.89-.58,1.23-4.39,2.81-6.58,6.89-6.67,12.07-.02,1.17-.28,1.57-1.52,1.59-2.83.04-5.63.49-8.3,1.46-3.16,1.15-4.61,3.76-5.41,6.79-.91,3.43-.57,6.91-.15,10.37.22,1.8.61,3.58,1.07,5.34.24.91.12,1.45-1.15,1.49-2.85.08-5.58.79-8,2.39-.66.43-1.32.67-2.11.59-2.46-.23-4.78.38-7.02,1.3-.78.32-1.04.11-1.2-.63-.36-1.75-1.01-3.39-1.96-4.91-1.22-1.96-2.78-3.15-5.28-3.34-3.4-.26-5.9,1.12-8.08,3.43-.49.52-.78.55-1.15-.01-.88-1.38-2.21-2.12-3.74-2.53-.75-.2-.99-.64-.98-1.36.02-1.04-.08-2.09,0-3.12.29-3.76-2.85-7.24-6.73-7.81-.78-.11-1.72.01-2.3-.38-.68-.46-.21-1.47-.27-2.23-.29-3.64-1.49-6.78-4.49-9.1-1.89-1.47-4.09-2-6.38-2.26-3.59-.41-6.89.23-9.51,2.97-.64.67-1.17,1.42-1.56,2.24-.29.6-.52.54-.88.1-1.43-1.79-3.1-2.23-5.15-1.01-.74.44-.97-.12-.99-.74-.05-1.61-.76-2.96-1.67-4.22-.89-1.23-2.16-1.73-3.62-1.93-2.51-.34-4.3.99-6.03,2.49-.19.16-.37.33-.64.56-.33-1.07.06-1.91.47-2.75,1.11-.47,2.25-.8,3.48-.78.25,0,.62.17.72-.24.07-.28-.14-.43-.35-.59-1.44-1.06-2.33-2.55-3.16-4.09.26-3.79-.75-7.35-1.98-10.88,1.53-2.03,3.35-3.7,5.7-4.74.42-.19.42-.65.3-.99-.7-2.1-.98-4.32-1.14-6.46-.2-2.64-.28-5.34.13-8.03.38-2.44,1.07-4.76,1.88-7.06.74-2.1,2.4-3.56,4.09-4.86,2.44-1.89,5.38-2.7,8.38-3.28,2.14-.41,4.29-.5,6.46-.48,0,0,.08.07.08.07l.08-.07c.2,0,.4,0,.61,0,0,0,.07.07.07.07l.08-.07c.54-.03.65-.46.75-.86.6-2.36,1.67-4.48,3.21-6.38.78-.96,1.37-2.09,2.2-3,5.24-5.68,11.38-6.5,18.18-4,1.52.56,1.5.59,1.7-.98.68-5.43,3.1-10.03,6.76-14.02,2.75-3,6.3-4.3,10.25-4.76,2.91-.34,5.78-.01,8.62.57.94.19,1.14-.07,1.09-.86-.19-3.36.96-6.49,1.64-9.7.67-3.18,2.51-5.62,5.24-7.34.64-.41,1.56-.37,2.34-.57,2.05-.54,4.1-.99,6.25-.9,1.1.05,2.22-.16,3.32-.25.05.02.1.05.15.07,0-.1,0-.2,0-.29-.04-.26-.07-.53-.11-.79.02-.01.07-.04.07-.04-.02-.05-.05-.09-.07-.13.03-1.09.06-2.19.09-3.28.15-.19.18-.37-.08-.5.1-3.11,2.66-6.03,5.22-7.08.15-.06.32-.1.47-.15,2.72-.83,2.52-.85,2.81-3.65.24-2.41.38-4.84.78-7.23.15-.92-.13-1.05-.8-1.24-3.24-.95-6.13-2.58-8.57-4.89-1.13-1.07-2.14-2.32-2.94-3.65-.64-1.06-.87-2.37-1.31-3.56-1.09-2.91-1.48-5.94-1.17-9,.23-2.33,1.44-4.22,3.48-5.52,3.43-2.18,7.18-2.06,10.97-1.5.48.07.79.13,1.19-.25-2.77-1.92-4.27-4.78-5.51-7.68-.73-1.72-.77-3.79-.64-5.77.2-3.18,1.28-5.96,2.99-8.65,1.27-2,2.85-3.68,4.36-5.46,1.34-1.59,3.1-2.48,4.81-3.38,2.98-1.57,6.24-2.22,9.63-2.39,1.72-.09,3.37.24,5.06.3.62.02.96.05.74-.86-.52-2.15-1.41-4.17-1.99-6.28-.88-3.2-1.67-6.42-1.72-9.83-.08-5.04,2.05-8.7,5.89-11.67,3.46-2.68,7.45-3.72,11.69-4.11v128.98Z"/><path class="cls-4" d="m165.4,361.95c-1.29,2.4-2.91,4.67-2.88,7.59,0,.72-.5.61-.98.47-2.11-.62-4.23-1.2-6.44-1.4-2.21-.2-4.44-.23-6.56.43-2.71.85-3.96,3.01-4.48,5.66-.09.45-.06,1.01-.47,1.21-.53.26-.8-.34-1.09-.64-2.52-2.62-8.3-2.58-10.73-.89-.24.17-.49.32-.73.48-.73.48-1.17.64-1.33-.57-.42-3.03-1.62-5.72-3.87-7.9-2.77-2.69-6.01-3.26-9.55-2.06-1.21.41-1.31.09-1.25-.94.1-1.75.09-3.51-1-5.04-2.13-2.98-6.44-3.8-9.71-1.86-1.32.78-1.25.75-1.9-.68-1.14-2.5-2.58-4.77-5.44-5.63-2.67-.8-6.32.32-7.91,2.46-.39.52-.66.31-1.01.03-.68-.54-1.35-1.12-2.07-1.6-1.98-1.33-4.05-1.47-6.07-.15-.81.53-1.18.33-1.7-.37-1.19-1.6-2.46-3.13-4.37-3.98-.95-.42-.36-.99.02-1.48,1.37-1.75,2.5-3.6,2.97-5.83.75-3.58-.36-6.46-3.07-8.8-.39-.34-.78-.62-.75-1.2.09-1.45.09-2.91.14-4.36.16-5.06-.02-10.08-2.84-14.56-1.74-2.77-4.43-4.04-7.52-4.59-.98-.18-1.99-.23-2.98-.23-.84,0-1.1-.37-1.31-1.14-.89-3.23-2.03-6.32-4.67-8.64-3.18-2.78-6.64-3.16-10.44-1.54-1.32.56-1.46.47-1.65-.94-.27-2.04-.81-4.02-1.7-5.86-.92-1.92-1.44-4.03-3.08-5.61-3.53-3.39-7.59-4.37-12.26-3-.16.05-.32.06-.58.11-.16-2.28-.27-4.54-.83-6.73-.93-3.68-2.63-6.83-6.36-8.36-1.53-.63-3.19-.79-4.84-.77-.92.01-1.1-.2-.92-1.15.47-2.42.41-4.89.29-7.34-.14-3.08-1.37-5.78-3.09-8.28-.43-.62-1.04-1.06-1.66-1.49-.68-.46-.78-.88.08-1.32,5.24-2.66,7.03-7.43,7.44-12.82.35-4.72-2.38-8.24-7.29-10.13-1.56-.6-1.55-.59-1.02-2.2,1.38-4.22,2.06-8.46.4-12.77-.87-2.25-1.96-4.37-3.34-6.35-.46-.65-1.06-1.16-1.91-1.58-.32,1.71-.27,3.39-.27,5.04-.04,34.41-.04,68.82-.04,103.22,0,26.2,0,52.4,0,78.6,0,1.5.03,3,.05,4.5-.52.17-.78,0-.74-.57.03-.57.03-1.15.04-1.73.29-.47.23-.95,0-1.42,0-.2,0-.41-.01-.61.16-.12.18-.25.01-.38,0-.21,0-.41-.01-.62.15-.12.18-.25.01-.39,0-.2-.01-.4-.02-.6.15-.13.18-.26.01-.4,0-.2,0-.4-.01-.59.16-.13.19-.26.01-.41,0-.2,0-.4-.01-.59.16-.13.19-.27.01-.41,0-.2,0-.4-.01-.59.17-.13.19-.27.01-.41,0-.2,0-.4-.01-.59.16-.13.19-.27.01-.41,0-.2,0-.4-.01-.59.17-.13.19-.27.01-.41,0-.2,0-.4-.01-.59.16-.13.19-.27.01-.41,0-.2,0-.4-.01-.59.17-.13.19-.27.01-.41,0-.2,0-.4-.01-.59.17-.13.19-.27.01-.41,0-.2,0-.4-.01-.59.17-.13.19-.27.01-.41,0-.2,0-.4-.01-.59.17-.13.19-.27.01-.41,0-.2,0-.4-.01-.59.17-.13.19-.27.01-.41,0-.2,0-.4-.01-.59.17-.13.19-.27.01-.41,0-.2,0-.4-.01-.59.17-.13.19-.27.01-.41,0-.2,0-.4-.01-.59.16-.13.19-.27.01-.41,0-.2,0-.4-.01-.59.16-.13.19-.27.01-.41,0-.2,0-.4-.01-.59.17-.13.19-.27.01-.41,0-.2,0-.39-.01-.59.16-.13.19-.27.01-.41,0-.2,0-.39-.01-.59.16-.13.19-.27.01-.41,0-.2,0-.4-.01-.59.16-.13.19-.27.01-.41,0-.2,0-.4-.01-.59.16-.13.19-.27.01-.41,0-.2,0-.4-.01-.59.16-.13.19-.26,0-.4,0-.2,0-.4-.01-.6.15-.13.17-.26,0-.39,0-.2,0-.4,0-.6.17-.13.19-.27.01-.41,0-.2,0-.39-.01-.59.17-.13.19-.27.01-.41,0-.2,0-.4-.01-.59.16-.13.19-.26.01-.41,0-.2,0-.4-.01-.59.16-.13.19-.27.01-.41,0-.2,0-.39-.01-.59.16-.13.19-.27.01-.41,0-.2,0-.4-.01-.59.16-.13.19-.27.01-.41,0-.2,0-.4-.01-.59.16-.13.19-.27.01-.41,0-.2,0-.4-.01-.59.17-.13.19-.27.01-.41,0-.2,0-.4-.01-.59.16-.13.19-.27.01-.41,0-.2,0-.4-.01-.59.17-.13.19-.27.01-.41,0-.2,0-.4-.01-.59.17-.13.19-.27.01-.41,0-.2,0-.4-.01-.59.17-.13.19-.27.01-.41,0-.2,0-.4-.01-.59.17-.13.19-.27.01-.41,0-.2,0-.4-.01-.59.17-.13.19-.27.01-.41,0-.2,0-.4-.01-.59.17-.13.19-.27.01-.41,0-.2,0-.4-.01-.59.17-.13.19-.27.01-.41,0-.2,0-.4-.01-.59.17-.13.19-.27.01-.41,0-.2,0-.4-.01-.59.17-.13.19-.27.01-.41,0-.2,0-.4-.01-.59.17-.13.19-.27.01-.41,0-.2,0-.4-.01-.59.17-.13.19-.27.01-.41,0-.2,0-.4-.01-.59.17-.13.19-.27.01-.41,0-.2,0-.4-.01-.59.17-.13.19-.27.01-.41,0-.2,0-.4-.01-.59.17-.13.19-.27.01-.41,0-.2,0-.4-.01-.59.17-.13.19-.27.01-.41,0-.2,0-.4-.01-.59.17-.13.19-.27.01-.41,0-.2,0-.4-.01-.59.17-.13.19-.27.01-.41,0-.2,0-.4-.01-.59.17-.13.19-.27.01-.41,0-.2,0-.4-.01-.59.17-.13.19-.27.01-.41,0-.2,0-.4-.01-.59.17-.13.19-.27.01-.41,0-.2,0-.4-.01-.59.17-.13.19-.27.01-.41,0-.2,0-.4-.01-.59.17-.13.19-.27.01-.41,0-.2,0-.4-.01-.59.17-.13.19-.27.01-.41,0-.2,0-.4-.01-.59.17-.13.19-.27.01-.41,0-.2,0-.4-.01-.59.17-.13.19-.27.01-.41,0-.2,0-.4-.01-.59.17-.13.19-.27.01-.41,0-.2,0-.4-.01-.59.17-.13.19-.27.01-.41,0-.2,0-.4-.01-.59.17-.13.19-.27.01-.41,0-.2,0-.4-.01-.59.17-.13.19-.27.01-.41,0-.2,0-.4-.01-.59.17-.13.19-.27.01-.41,0-.2,0-.4-.01-.59.17-.13.19-.27.01-.41,0-.2,0-.4-.01-.59.17-.13.19-.27.01-.41,0-.2,0-.4-.01-.59.17-.13.19-.27.01-.41,0-.2,0-.4-.01-.59.17-.13.19-.27.01-.41,0-.2,0-.4-.01-.59.17-.13.19-.27.01-.41,0-.2,0-.4-.01-.59.17-.13.19-.27.01-.41,0-.2,0-.4-.01-.59.17-.13.19-.27.01-.41,0-.2,0-.4-.01-.59.17-.13.19-.27.01-.41,0-.2,0-.4-.01-.59.17-.13.19-.27.01-.41,0-.2,0-.4-.01-.59.17-.13.19-.27.01-.41,0-.2,0-.4-.01-.59.17-.13.19-.27.01-.41,0-.2,0-.4-.01-.59.17-.13.19-.27.01-.41,0-.2,0-.4-.01-.59.17-.13.19-.27.01-.41,0-.2,0-.4-.01-.59.17-.13.19-.27.01-.41,0-.2,0-.4-.01-.59.17-.13.19-.27.01-.41,0-.2,0-.4-.01-.59.17-.13.19-.27.01-.41,0-.2,0-.4-.01-.59.17-.13.19-.27.01-.41,0-.2,0-.4-.01-.59.17-.13.19-.27.01-.41,0-.2,0-.4-.01-.59.17-.13.19-.27.01-.41,0-.2,0-.4-.01-.59.17-.13.19-.27.01-.41,0-.2,0-.4-.01-.59.17-.13.19-.27.01-.41,0-.2,0-.4-.01-.59.17-.13.19-.27.01-.41,0-.2,0-.4-.01-.59.17-.13.19-.27.01-.41,0-.2,0-.4-.01-.59.17-.13.19-.27.01-.41,0-.2,0-.4-.01-.59.17-.13.19-.27.01-.41,0-.2,0-.4-.01-.59.17-.13.19-.27.01-.41,0-.2,0-.4-.01-.59.17-.13.19-.27.01-.41,0-.2,0-.4-.01-.59.17-.13.19-.27.01-.41,0-.2,0-.4-.01-.59.17-.13.19-.27.01-.41,0-.2,0-.4-.01-.59.17-.13.19-.27.01-.41,0-.2,0-.4-.01-.59.17-.13.19-.27.01-.41,0-.2,0-.4-.01-.59.17-.13.19-.27.01-.41,0-.2,0-.4-.01-.59.17-.13.19-.27.01-.41,0-.2,0-.4-.01-.59.17-.13.19-.27.01-.41,0-.2,0-.4-.01-.59.17-.13.19-.27.01-.41,0-.2,0-.4-.01-.59.17-.13.19-.27.01-.41,0-.2,0-.4-.01-.59.17-.13.19-.27.01-.41,0-.2,0-.4-.01-.59.17-.13.19-.27.01-.41,0-.2,0-.4-.01-.59.17-.13.19-.27.01-.41,0-.2,0-.4-.01-.59.17-.13.19-.27.01-.41,0-.2,0-.4-.01-.59.17-.13.19-.27.01-.41,0-.2,0-.4-.01-.59.17-.13.19-.27.01-.41,0-.2,0-.4-.01-.59.17-.13.19-.27.01-.41,0-.2,0-.4-.01-.59.17-.13.19-.27.01-.41,0-.2,0-.4-.01-.59.17-.13.19-.27.01-.41,0-.2,0-.4-.01-.59.17-.13.19-.27.01-.41,0-.2,0-.4-.01-.59.17-.13.19-.27.01-.41,0-.2,0-.4-.01-.59.17-.13.19-.27.01-.41,0-.2,0-.4-.01-.59.17-.13.19-.27.01-.41,0-.2,0-.4-.01-.59.17-.13.19-.27.01-.41,0-.2,0-.4-.01-.59.17-.13.19-.27.01-.41,0-.2,0-.4-.01-.59.17-.13.19-.27.01-.41,0-.2,0-.4-.01-.59.17-.13.19-.27.01-.41,0-.2,0-.4-.01-.59.16-.13.19-.27.01-.41,0-.2,0-.4-.01-.59.17-.13.19-.27.01-.41,0-.2,0-.4-.01-.59.17-.13.19-.27.01-.41,0-.2,0-.4-.01-.59.16-.13.19-.27.01-.41,0-.2,0-.4-.01-.59.17-.13.19-.27.01-.41,0-.2,0-.4-.01-.59.17-.13.19-.27.01-.41,0-.2,0-.4-.01-.59.16-.13.19-.27.01-.41,0-.2,0-.4-.01-.59.17-.13.19-.27.01-.41,0-.2,0-.4-.01-.59.17-.13.19-.27.01-.41,0-.2,0-.39-.01-.59.17-.13.19-.27.01-.41,0-.2,0-.4-.01-.59.16-.13.19-.27.01-.41,0-.2,0-.4-.01-.59.17-.13.19-.27.01-.41,0-.2,0-.4-.01-.59.16-.13.19-.27.01-.41,0-.2,0-.4-.01-.59.16-.13.19-.27.01-.41,0-.2,0-.4-.01-.59.17-.13.19-.27.01-.41,0-.2,0-.4-.01-.59.17-.13.19-.27.01-.41,0-.2,0-.4-.01-.59.16-.13.19-.27.01-.41,0-.2,0-.4-.01-.59.17-.13.19-.27.01-.41,0-.2,0-.4-.01-.59.16-.13.19-.27.01-.41,0-.2,0-.4-.01-.59.16-.13.19-.27.01-.41,0-.2,0-.4-.01-.59.17-.13.19-.27.01-.41,0-.2,0-.39-.01-.59.17-.13.19-.27.01-.41,0-.2,0-.39-.01-.59.17-.13.19-.27.01-.41,0-.2,0-.39-.01-.59.16-.13.19-.27.01-.41,0-.2,0-.39-.01-.59.17-.13.19-.27.01-.41,0-.2,0-.39-.01-.59.16-.13.19-.27.01-.41,0-.2,0-.4-.01-.59.16-.13.18-.26,0-.4,0-.2,0-.4-.01-.6.15-.13.17-.26,0-.39,0-.2,0-.4,0-.6.17-.13.19-.27.01-.41,0-.2,0-.39-.01-.59.17-.13.19-.27.01-.41,0-.2,0-.4-.01-.59.16-.13.19-.26.01-.41,0-.2,0-.4-.01-.59.16-.13.19-.27.01-.41,0-.2,0-.39-.01-.59.16-.13.19-.27.01-.41,0-.2,0-.4-.01-.59.17-.13.19-.27.01-.41,0-.2,0-.4-.01-.59.16-.13.19-.27.01-.41,0-.2,0-.4-.01-.59.17-.13.19-.27.01-.41,0-.2,0-.4-.01-.59.16-.13.19-.27.01-.41,0-.2,0-.4-.01-.59.17-.13.19-.27.01-.41,0-.2,0-.4-.01-.59.16-.13.19-.27.01-.41,0-.2,0-.4-.01-.59.17-.13.19-.27.01-.41,0-.2,0-.4-.01-.59.17-.13.19-.27.01-.41,0-.2,0-.4-.01-.59.16-.13.19-.27.01-.41,0-.2,0-.4-.01-.59.16-.13.19-.27.01-.41,0-.2,0-.4-.01-.59.16-.13.19-.27.01-.41,0-.2,0-.4-.01-.59.16-.13.19-.27.01-.41,0-.2,0-.4-.01-.59.17-.13.19-.27.01-.41,0-.2,0-.39-.01-.59.17-.13.19-.27.01-.41,0-.2,0-.39-.01-.59.17-.13.19-.27.01-.42,0-.19,0-.39-.01-.58.17-.13.19-.27.01-.42,0-.19,0-.39-.01-.58.17-.13.19-.27.01-.42,0-.2,0-.39-.01-.59.17-.13.19-.27.01-.41,0-.2,0-.39-.01-.59.17-.13.19-.27.01-.41,0-.2,0-.39-.01-.59.17-.13.19-.27.01-.41,0-.2,0-.4-.01-.59.17-.13.19-.27.01-.41,0-.2,0-.4-.01-.59.16-.13.19-.26.01-.41,0-.2,0-.4-.01-.59.16-.13.19-.27.01-.41,0-.2,0-.4-.01-.59.16-.13.19-.27.01-.41,0-.2,0-.4-.01-.59.16-.13.19-.27.01-.41,0-.2,0-.4-.01-.59.16-.13.19-.27.01-.41,0-.2,0-.39-.01-.59.17-.13.19-.27.01-.41,0-.2,0-.39-.01-.59.16-.13.19-.27.01-.41,0-.2,0-.39-.01-.59.17-.13.19-.27.01-.41,0-.2,0-.39-.01-.59.17-.13.2-.27.02-.41,0-.2,0-.39-.01-.58.17-.13.2-.27.02-.42,0-.19,0-.38-.01-.58.18-.14.2-.28.01-.43,0-.19,0-.38,0-.57.19-.14.2-.28.01-.43,0-.19,0-.37,0-.56.2-.14.2-.29.01-.45,0-.18,0-.37,0-.55.25-.81.26-1.62-.04-2.42-.01-3.25-.03-6.5-.03-9.75,0-29.49,0-58.98,0-88.47,0-2.26.02-2.3,2.16-1.7,4.8,1.33,9.13,3.43,11.8,7.92,2.19,3.68,2.82,7.62,2.37,11.92-.53,5.04-2.09,9.77-3.49,14.57-.31,1.06.4.76.89.64,3.51-.87,6.95-.5,10.32.61,5.27,1.75,8.82,5.46,11.46,10.2,2.13,3.83,3.39,7.87,2.99,12.29-.4,4.42-2.28,8.16-5.57,11.33.94.23,1.79.13,2.68.02,3.61-.43,6.98.03,9.6,2.91,1.35,1.49,1.94,3.3,2.04,5.24.24,4.69-.58,9.16-2.89,13.32-1.61,2.9-3.83,5.14-6.76,6.66-1.14.59-2.3,1.15-3.51,1.57-.87.3-.63.93-.55,1.41.28,1.66.32,3.34.47,5.01.15,1.71.32,3.42.49,5.14.06.57.52.51.92.63,2.5.77,4.7,2.01,5.66,4.61.86,2.35,1.33,4.8,1.19,7.34-.03.45-.3,1,.25,1.37.83.33,1.66.22,2.49.01,2.44.24,4.9.51,7.13,1.54,2.14.98,3.82,2.46,4.77,4.82,1.24,3.1,1.79,6.33,2.44,9.55.23,1.15.19,2.32.15,3.49-.03.92.39,1.2,1.23,1.02,2.28-.48,4.59-.63,6.9-.5,2.75.16,5.27.98,7.6,2.54,3.41,2.28,5.14,5.74,6.79,9.26,1.27,2.71,1.96,5.6,2.22,8.58.06.64.36.64.83.49,1.05-.35,2.09-.76,3.17-1.02,3.85-.9,7.63-.71,10.87,1.74,1.72,1.3,3.2,2.95,4.46,4.8,1.75,2.58,2.96,5.37,4.04,8.25.12.31.29.59.43.89.02.13.09.19.22.12,4.02-.33,7.89.32,11.51,2.09,2.2,1.08,4.2,2.5,5.47,4.75,1.44,2.58,2.3,5.32,2.81,8.22.32,1.8.4,3.64.36,5.4-.08,2.9,0,5.85-.8,8.71-.24.86-.1,1.8-.38,2.69-.18.59.45.79.88,1.03,2.43,1.35,4.38,3.16,5.16,5.92.46,1.62.52,3.31-.01,4.91-1.13,3.39-2.58,6.62-4.96,9.36-.61.7-.17.91.5.99,1.41.16,2.77.48,3.96,1.3,2.01,1.39,3.26,3.24,3.34,5.9,1.26-.7,2.45-1.23,3.68-1.71,6.66-2.59,11.39,1.49,13.47,6.5,1.03,2.48,1.14,5.1,1.01,7.72-.05,1.1.42,1.16,1.24.99,1.86-.39,3.7-.37,5.5.34,1.81.7,2.75,2.16,3.44,3.83.57,1.39.86,2.86.93,4.37Z"/><path class="cls-1" d="m86.3,179.15c.2,1.25-.6,1.96-1.69,2.32-1.41.47-2.87.81-4.32,1.19-1.64.42-2.65,1.3-2.77,3.14-.08,1.15-.48,2.29-.82,3.42-.38,1.29-1.34,2.01-2.5,2.03-1.34.02-2.2-.63-2.72-1.92-.59-1.45-.81-2.99-1.11-4.49-.25-1.25-.98-1.81-2.03-2.04-1.45-.33-2.92-.61-4.35-1.03-1.35-.39-2.48-1.6-2.43-2.72.07-1.4,1.29-2.76,2.65-3.04,1.54-.31,3.09-.63,4.6-1.04.85-.23,1.3-.89,1.53-1.79.38-1.49.57-3.03,1.15-4.48.55-1.36,1.54-2.21,2.6-2.17,1.42.06,2.38.93,2.77,2.56.31,1.28.64,2.55.85,3.85.29,1.74,1.5,2.38,3.02,2.55,1.27.14,2.45.59,3.69.86,1.24.27,1.89,1.37,1.89,2.82Zm-12.15,10.33c.58-.28.83-.76.89-1.38.17-1.6.66-3.11,1.17-4.63.47-1.39,1.4-2.2,2.83-2.51,1.41-.31,2.82-.65,4.21-1.03.54-.15,1.33-.32,1.37-.92.03-.62-.77-.79-1.29-.95-1.22-.37-2.46-.68-3.7-.95-2.08-.46-3.35-1.68-3.82-3.78-.34-1.48-.42-3.02-1.13-4.41-.38-.74-.72-.79-1.17-.04-.71,1.21-.94,2.62-1.12,3.91-.35,2.47-1.54,3.82-3.92,4.29-1.26.25-2.5.62-3.74.96-.49.13-1.1.34-1.18.81-.09.57.57.75,1.01.91,1.16.41,2.33.81,3.56.97,2.28.29,3.66,1.56,4.16,3.84.26,1.22.52,2.44.79,3.65.13.6.42,1.08,1.07,1.27Z"/><path class="cls-1" d="m203.02,266.08c.2,1.11-.63,1.41-1.44,1.64-1.04.3-2.1.64-3.17.69-2.33.11-2.93,1.7-3.39,3.53-.18.7-.29,1.38-.79,2.01-1.11,1.37-3.79.77-4.14-.93-.21-1.03-.72-1.98-.83-3.06-.09-.87-.82-1.07-1.52-1.21-1.3-.26-2.6-.49-3.89-.76-1.22-.26-2.14-1.19-2.13-2.12,0-1.4,1.25-1.65,2.12-1.8,1.36-.24,2.68-.69,4.06-.82.57-.05.95-.52,1.13-1.02.38-1.01.89-2.04.96-3.09.12-1.61,1.41-1.61,2.34-1.83.79-.18,1.64.42,2.11,1.18.36.59.61,1.26.79,1.93.78,2.8,1.02,3.03,3.85,3.32.97.1,1.88.39,2.81.69.87.28,1.24.75,1.12,1.66Zm-2.89.07c0-.06.02-.13.02-.19-.92-.21-1.84-.51-2.77-.62-2.38-.27-3.42-1.79-3.86-3.93-.07-.32-.14-.65-.25-.96-.17-.54-.29-1.31-1-1.23-.61.08-.69.74-.74,1.36-.24,2.97-1.32,4.15-4.25,4.8-.84.19-1.75.12-2.56.64.45.32.85.43,1.33.46,3.42.17,4.59,1.13,5.41,4.36.12.48.17.98.44,1.42.16.25.29.53.65.46.29-.05.38-.28.45-.53.26-.88.55-1.74.76-2.63.41-1.73,1.6-2.54,3.24-2.85,1.04-.2,2.08-.38,3.13-.57Z"/><path class="cls-1" d="m329.71,136.53c1.17-.26,1.68.52,1.76,1.41.21,2.43,1.74,3.16,3.85,3.33.39.03.77.27,1.15.42.6.24.67.88.72,1.33.05.46-.46.83-.95.97-.96.27-1.92.63-2.9.73-.97.1-1.34.64-1.58,1.44-.25.85-.29,1.78-.99,2.46-1,.97-1.93.83-2.52-.42-.19-.4-.45-.83-.47-1.25-.1-1.99-1.54-2.31-3.06-2.56-.76-.13-1.49-.3-2.08-.88-.88-.87-.75-1.54.48-1.97.88-.31,1.79-.59,2.71-.77.99-.19,1.54-.75,1.65-1.7.07-.55.36-.98.52-1.47.27-.84.78-1.28,1.7-1.07Zm-.39,9.63c.98-1.2,1.53-2.52,2.78-3.22.26-.14.24-.58-.11-.71-1.1-.39-1.53-1.32-1.99-2.25-.15-.31-.63-.58-.64-.07-.04,1.62-1.35,2.1-2.53,2.91,1.69.5,2.3,1.66,2.5,3.33Z"/><path class="cls-1" d="m219.43,283.49c.89-.09,1.45.21,1.64,1.14.14.7.61,1.3.72,2.04.08.53.49.77,1.06.83.97.11,1.93.28,2.88.51.52.12.98.4,1.06,1.06.08.73-.29,1.07-.89,1.29-.49.18-.96.38-1.52.39-1.71.03-2.9.82-3.26,2.57-.2.96-.51,1.65-1.69,1.69-1.21.04-1.76-.84-1.83-1.62-.22-2.31-1.95-2.38-3.54-2.73-.39-.09-.8-.1-1.18-.19-.53-.13-.83-.47-.85-1.05-.02-.53-.01-.99.62-1.16,1.01-.28,1.98-.73,3.05-.77.76-.03,1.4-.26,1.41-1.17,0-.79.52-1.38.73-2.1.23-.81.97-.76,1.61-.73Zm2.25,5.7c-.4-.34-.76-.67-1.14-.96-.57-.43-.25-1.65-.97-1.63-.71.02-.74,1.17-1.3,1.68-.78.71-1.12,1.43.08,2.13.42.24.71.68.76,1.22.02.25.12.52.4.56.36.05.33-.35.38-.52.24-.77.55-1.45,1.29-1.88.16-.09.26-.3.5-.6Z"/><path class="cls-5" d="m.09,198.29c.3.8.3,1.61.04,2.42-.15-.81-.12-1.61-.04-2.42Z"/><path class="cls-5" d="m45.06,223.08c-.83.21-1.66.32-2.49-.01.83-.04,1.66-.16,2.49.01Z"/><path class="cls-5" d="m.12,385.26c.22.47.28.95,0,1.42-.11-.47-.12-.95,0-1.42Z"/><path class="cls-5" d="m.12,268.27c.18.14.15.28-.01.41,0-.14,0-.27.01-.41Z"/><path class="cls-5" d="m.12,367.26c.18.14.15.28-.01.41,0-.14,0-.27.01-.41Z"/><path class="cls-5" d="m.12,285.27c.18.14.15.28-.01.41,0-.14,0-.27.01-.41Z"/><path class="cls-5" d="m.12,383.26c.16.14.14.27-.01.39,0-.13,0-.26.01-.39Z"/><path class="cls-5" d="m.13,201.26c.19.15.19.3-.01.45,0-.15,0-.3.01-.45Z"/><path class="cls-5" d="m.13,202.27c.19.15.17.29-.01.43,0-.15,0-.29.01-.43Z"/><path class="cls-5" d="m.13,203.27c.18.15.16.29-.01.43,0-.14,0-.28.01-.43Z"/><path class="cls-5" d="m.13,204.27c.18.15.16.29-.02.42,0-.14.01-.28.02-.42Z"/><path class="cls-5" d="m.12,205.28c.18.15.15.28-.02.41,0-.14.01-.28.02-.41Z"/><path class="cls-5" d="m.12,206.28c.18.14.15.28-.01.41,0-.14,0-.27.01-.41Z"/><path class="cls-5" d="m.12,207.28c.18.14.15.28-.01.41,0-.14,0-.27.01-.41Z"/><path class="cls-5" d="m.12,208.28c.18.14.15.28-.01.41,0-.14,0-.27.01-.41Z"/><path class="cls-5" d="m.12,209.28c.18.14.15.28-.01.41,0-.14,0-.27.01-.41Z"/><path class="cls-5" d="m.12,210.28c.18.14.15.28-.01.41,0-.14,0-.27.01-.41Z"/><path class="cls-5" d="m.12,211.28c.18.14.15.28-.01.41,0-.14,0-.27.01-.41Z"/><path class="cls-5" d="m.12,212.28c.18.14.15.28-.01.41,0-.14,0-.27.01-.41Z"/><path class="cls-5" d="m.12,213.28c.18.14.15.28-.01.41,0-.14,0-.27.01-.41Z"/><path class="cls-5" d="m.12,214.28c.18.14.15.28-.01.41,0-.14,0-.27.01-.41Z"/><path class="cls-5" d="m.12,215.28c.18.14.15.28-.01.41,0-.14,0-.27.01-.41Z"/><path class="cls-5" d="m.12,216.28c.18.14.15.28-.01.41,0-.14,0-.27.01-.41Z"/><path class="cls-5" d="m.12,217.27c.18.14.15.28-.01.41,0-.14,0-.28.01-.41Z"/><path class="cls-5" d="m.12,218.27c.18.14.16.28-.01.42,0-.14,0-.28.01-.42Z"/><path class="cls-5" d="m.12,219.27c.18.14.16.28-.01.42,0-.14,0-.28.01-.42Z"/><path class="cls-5" d="m.12,220.27c.18.14.15.28-.01.42,0-.14,0-.28.01-.42Z"/><path class="cls-5" d="m.12,221.27c.18.14.15.28-.01.41,0-.14,0-.27.01-.41Z"/><path class="cls-5" d="m.12,222.28c.18.14.15.28-.01.41,0-.14,0-.27.01-.41Z"/><path class="cls-5" d="m.12,382.25c.17.14.14.27-.01.4,0-.14,0-.27.01-.4Z"/><path class="cls-5" d="m.12,223.28c.18.14.15.28-.01.41,0-.14,0-.27.01-.41Z"/><path class="cls-5" d="m.12,224.28c.18.14.15.28-.01.41,0-.14,0-.27.01-.41Z"/><path class="cls-5" d="m.12,225.28c.18.14.15.28-.01.41,0-.14,0-.27.01-.41Z"/><path class="cls-5" d="m383.56,225.5c.26.13.23.3.08.5-.03-.17-.05-.33-.08-.5Z"/><path class="cls-5" d="m.12,226.28c.18.14.15.28-.01.41,0-.14,0-.27.01-.41Z"/><path class="cls-5" d="m.12,227.28c.18.14.15.28-.01.41,0-.14,0-.27.01-.41Z"/><path class="cls-5" d="m.12,228.28c.18.14.15.28-.01.41,0-.14,0-.27.01-.41Z"/><path class="cls-5" d="m.12,229.28c.18.14.15.28-.01.41,0-.14,0-.27.01-.41Z"/><path class="cls-5" d="m.12,381.25c.18.14.15.28-.01.41,0-.14,0-.27.01-.41Z"/><path class="cls-5" d="m.12,230.28c.18.14.15.28-.01.41,0-.14,0-.27.01-.41Z"/><path class="cls-5" d="m383.67,230.24c0,.1,0,.2,0,.29-.05-.02-.1-.05-.15-.07.05-.07.1-.15.14-.22Z"/><path class="cls-5" d="m.12,231.28c.18.14.15.28-.01.41,0-.14,0-.27.01-.41Z"/><path class="cls-5" d="m.12,232.27c.18.14.15.28-.01.41,0-.14,0-.27.01-.41Z"/><path class="cls-5" d="m.12,233.28c.18.14.15.28-.01.41,0-.14,0-.27.01-.41Z"/><path class="cls-5" d="m.12,234.27c.18.14.15.28-.01.41,0-.14,0-.27.01-.41Z"/><path class="cls-5" d="m.12,380.25c.18.14.15.28-.01.41,0-.14,0-.27.01-.41Z"/><path class="cls-5" d="m.12,235.28c.18.14.15.28-.01.41,0-.14,0-.27.01-.41Z"/><path class="cls-5" d="m.12,236.27c.18.14.15.28-.01.41,0-.14,0-.27.01-.41Z"/><path class="cls-5" d="m.12,237.27c.18.14.15.28-.01.41,0-.14,0-.27.01-.41Z"/><path class="cls-5" d="m.12,238.27c.18.14.15.28-.01.41,0-.14,0-.27.01-.41Z"/><path class="cls-5" d="m.12,239.27c.18.14.15.28-.01.41,0-.14,0-.27.01-.41Z"/><path class="cls-5" d="m.11,240.28c.16.14.15.27,0,.39,0-.13,0-.26,0-.39Z"/><path class="cls-5" d="m.12,379.25c.18.14.15.28-.01.41,0-.14,0-.27.01-.41Z"/><path class="cls-5" d="m.11,241.28c.17.14.15.27,0,.4,0-.13,0-.27,0-.4Z"/><path class="cls-5" d="m.12,378.25c.18.14.15.28-.01.41,0-.14,0-.27.01-.41Z"/><path class="cls-5" d="m.12,242.28c.18.14.15.28-.01.41,0-.14,0-.27.01-.41Z"/><path class="cls-5" d="m.12,243.27c.18.14.15.28-.01.41,0-.14,0-.27.01-.41Z"/><path class="cls-5" d="m.12,244.27c.18.14.15.28-.01.41,0-.14,0-.28.01-.41Z"/><path class="cls-5" d="m.12,245.27c.18.14.15.28-.01.41,0-.14,0-.27.01-.41Z"/><path class="cls-5" d="m.12,246.27c.18.14.15.28-.01.41,0-.14,0-.27.01-.41Z"/><path class="cls-5" d="m.12,247.27c.18.14.15.28-.01.41,0-.14,0-.27.01-.41Z"/><path class="cls-5" d="m.12,248.27c.18.14.15.28-.01.41,0-.14,0-.27.01-.41Z"/><path class="cls-5" d="m.12,249.27c.18.14.15.28-.01.41,0-.14,0-.27.01-.41Z"/><path class="cls-5" d="m.12,250.27c.18.14.15.28-.01.41,0-.14,0-.27.01-.41Z"/><path class="cls-5" d="m.12,251.27c.18.14.15.28-.01.41,0-.14,0-.27.01-.41Z"/><path class="cls-5" d="m.12,252.27c.18.14.15.28-.01.41,0-.14,0-.27.01-.41Z"/><path class="cls-5" d="m.12,253.27c.18.14.15.28-.01.41,0-.14,0-.27.01-.41Z"/><path class="cls-5" d="m.12,254.27c.18.14.15.28-.01.41,0-.14,0-.27.01-.41Z"/><path class="cls-5" d="m.12,255.27c.18.14.15.28-.01.41,0-.14,0-.27.01-.41Z"/><path class="cls-5" d="m.12,256.27c.18.14.15.28-.01.41,0-.14,0-.27.01-.41Z"/><path class="cls-5" d="m.12,257.27c.18.14.15.28-.01.41,0-.14,0-.27.01-.41Z"/><path class="cls-5" d="m.12,377.25c.18.14.15.28-.01.41,0-.14,0-.27.01-.41Z"/><path class="cls-5" d="m.12,258.27c.18.14.15.28-.01.41,0-.14,0-.27.01-.41Z"/><path class="cls-5" d="m.12,259.27c.18.14.15.28-.01.41,0-.14,0-.27.01-.41Z"/><path class="cls-5" d="m.12,376.25c.18.14.15.28-.01.41,0-.14,0-.27.01-.41Z"/><path class="cls-5" d="m.12,260.27c.18.14.15.28-.01.41,0-.14,0-.27.01-.41Z"/><path class="cls-5" d="m.12,261.27c.18.14.15.28-.01.41,0-.14,0-.27.01-.41Z"/><path class="cls-5" d="m.12,262.27c.18.14.15.28-.01.41,0-.14,0-.27.01-.41Z"/><path class="cls-5" d="m.12,263.27c.18.14.15.28-.01.41,0-.14,0-.27.01-.41Z"/><path class="cls-5" d="m.12,264.27c.18.14.15.28-.01.41,0-.14,0-.27.01-.41Z"/><path class="cls-5" d="m.12,265.27c.18.14.15.28-.01.41,0-.14,0-.27.01-.41Z"/><path class="cls-5" d="m.12,266.27c.18.14.15.28-.01.41,0-.14,0-.27.01-.41Z"/><path class="cls-5" d="m.12,267.27c.18.14.15.28-.01.41,0-.14,0-.27.01-.41Z"/><path class="cls-5" d="m.12,375.25c.18.14.15.28-.01.41,0-.14,0-.27.01-.41Z"/><path class="cls-5" d="m.12,374.25c.18.14.15.28-.01.41,0-.14,0-.27.01-.41Z"/><path class="cls-5" d="m.12,270.27c.18.14.15.28-.01.41,0-.14,0-.27.01-.41Z"/><path class="cls-5" d="m.12,271.27c.18.14.15.28-.01.41,0-.14,0-.27.01-.41Z"/><path class="cls-5" d="m.12,272.27c.18.14.15.28-.01.41,0-.14,0-.27.01-.41Z"/><path class="cls-5" d="m.12,273.27c.18.14.15.28-.01.41,0-.14,0-.27.01-.41Z"/><path class="cls-5" d="m.12,274.27c.18.14.15.28-.01.41,0-.14,0-.27.01-.41Z"/><path class="cls-5" d="m.12,275.27c.18.14.15.28-.01.41,0-.14,0-.27.01-.41Z"/><path class="cls-5" d="m.12,276.27c.18.14.15.28-.01.41,0-.14,0-.27.01-.41Z"/><path class="cls-5" d="m.12,277.27c.18.14.15.28-.01.41,0-.14,0-.27.01-.41Z"/><path class="cls-5" d="m.12,278.27c.18.14.15.28-.01.41,0-.14,0-.27.01-.41Z"/><path class="cls-5" d="m.12,373.25c.18.14.15.28-.01.41,0-.14,0-.27.01-.41Z"/><path class="cls-5" d="m.12,279.27c.18.14.15.28-.01.41,0-.14,0-.27.01-.41Z"/><path class="cls-5" d="m.12,280.27c.18.14.15.28-.01.41,0-.14,0-.27.01-.41Z"/><path class="cls-5" d="m.12,281.27c.18.14.15.28-.01.41,0-.14,0-.27.01-.41Z"/><path class="cls-5" d="m.12,282.27c.18.14.15.28-.01.41,0-.14,0-.27.01-.41Z"/><path class="cls-5" d="m.12,283.27c.18.14.15.28-.01.41,0-.14,0-.27.01-.41Z"/><path class="cls-5" d="m.12,372.25c.18.14.15.28-.01.41,0-.14,0-.27.01-.41Z"/><path class="cls-5" d="m.12,371.25c.18.14.15.28-.01.41,0-.14,0-.27.01-.41Z"/><path class="cls-5" d="m.12,370.25c.18.14.15.28-.01.41,0-.14,0-.27.01-.41Z"/><path class="cls-5" d="m.12,284.27c.18.14.15.28-.01.41,0-.14,0-.27.01-.41Z"/><path class="cls-5" d="m.12,384.27c.16.13.15.26-.01.38,0-.13,0-.26.01-.38Z"/><path class="cls-5" d="m.12,286.27c.18.14.15.28-.01.41,0-.14,0-.27.01-.41Z"/><path class="cls-5" d="m.12,369.25c.18.14.15.28-.01.41,0-.14,0-.27.01-.41Z"/><path class="cls-5" d="m.12,287.27c.18.14.15.28-.01.41,0-.14,0-.27.01-.41Z"/><path class="cls-5" d="m.12,288.27c.18.14.15.28-.01.41,0-.14,0-.27.01-.41Z"/><path class="cls-5" d="m.12,289.27c.18.14.15.28-.01.41,0-.14,0-.27.01-.41Z"/><path class="cls-5" d="m.12,290.27c.18.14.15.28-.01.41,0-.14,0-.27.01-.41Z"/><path class="cls-5" d="m.12,291.27c.18.14.15.28-.01.41,0-.14,0-.27.01-.41Z"/><path class="cls-5" d="m.12,292.27c.18.14.15.28-.01.41,0-.14,0-.27.01-.41Z"/><path class="cls-5" d="m.12,293.27c.18.14.15.28-.01.41,0-.14,0-.27.01-.41Z"/><path class="cls-5" d="m.12,294.27c.18.14.15.28-.01.41,0-.14,0-.27.01-.41Z"/><path class="cls-5" d="m.12,295.27c.18.14.15.28-.01.41,0-.14,0-.27.01-.41Z"/><path class="cls-5" d="m.12,296.27c.18.14.15.28-.01.41,0-.14,0-.27.01-.41Z"/><path class="cls-5" d="m.12,297.27c.18.14.15.28-.01.41,0-.14,0-.27.01-.41Z"/><path class="cls-5" d="m.12,298.26c.18.14.15.28-.01.41,0-.14,0-.27.01-.41Z"/><path class="cls-5" d="m.12,299.26c.18.14.15.28-.01.41,0-.14,0-.27.01-.41Z"/><path class="cls-5" d="m.12,300.26c.18.14.15.28-.01.41,0-.14,0-.27.01-.41Z"/><path class="cls-5" d="m.12,301.26c.18.14.15.28-.01.41,0-.14,0-.27.01-.41Z"/><path class="cls-5" d="m.12,302.26c.18.14.15.28-.01.41,0-.14,0-.27.01-.41Z"/><path class="cls-5" d="m.12,303.26c.18.14.15.28-.01.41,0-.14,0-.27.01-.41Z"/><path class="cls-5" d="m.12,304.26c.18.14.15.28-.01.41,0-.14,0-.27.01-.41Z"/><path class="cls-5" d="m.12,305.26c.18.14.15.28-.01.41,0-.14,0-.27.01-.41Z"/><path class="cls-5" d="m.12,306.26c.18.14.15.28-.01.41,0-.14,0-.27.01-.41Z"/><path class="cls-5" d="m.12,307.26c.18.14.15.28-.01.41,0-.14,0-.27.01-.41Z"/><path class="cls-5" d="m.12,308.26c.18.14.15.28-.01.41,0-.14,0-.27.01-.41Z"/><path class="cls-5" d="m.12,309.26c.18.14.15.28-.01.41,0-.14,0-.27.01-.41Z"/><path class="cls-5" d="m.12,310.26c.18.14.15.28-.01.41,0-.14,0-.27.01-.41Z"/><path class="cls-5" d="m.12,311.26c.18.14.15.28-.01.41,0-.14,0-.27.01-.41Z"/><path class="cls-5" d="m.12,312.26c.18.14.15.28-.01.41,0-.14,0-.27.01-.41Z"/><path class="cls-5" d="m.12,313.26c.18.14.15.28-.01.41,0-.14,0-.27.01-.41Z"/><path class="cls-5" d="m.12,314.26c.18.14.15.28-.01.41,0-.14,0-.27.01-.41Z"/><path class="cls-5" d="m.12,315.26c.18.14.15.28-.01.41,0-.14,0-.27.01-.41Z"/><path class="cls-5" d="m.12,316.26c.18.14.15.28-.01.41,0-.14,0-.27.01-.41Z"/><path class="cls-5" d="m.12,317.26c.18.14.15.28-.01.41,0-.14,0-.27.01-.41Z"/><path class="cls-5" d="m.12,318.26c.18.14.15.28-.01.41,0-.14,0-.27.01-.41Z"/><path class="cls-5" d="m.12,319.26c.18.14.15.28-.01.41,0-.14,0-.27.01-.41Z"/><path class="cls-5" d="m.12,320.26c.18.14.15.28-.01.41,0-.14,0-.27.01-.41Z"/><path class="cls-5" d="m.12,321.26c.18.14.15.28-.01.41,0-.14,0-.27.01-.41Z"/><path class="cls-5" d="m.12,322.26c.18.14.15.28-.01.41,0-.14,0-.27.01-.41Z"/><path class="cls-5" d="m.12,323.26c.18.14.15.28-.01.41,0-.14,0-.27.01-.41Z"/><path class="cls-5" d="m.12,324.26c.18.14.15.28-.01.41,0-.14,0-.27.01-.41Z"/><path class="cls-5" d="m.12,325.26c.18.14.15.28-.01.41,0-.14,0-.27.01-.41Z"/><path class="cls-5" d="m.12,326.26c.18.14.15.28-.01.41,0-.14,0-.27.01-.41Z"/><path class="cls-5" d="m.12,327.26c.18.14.15.28-.01.41,0-.14,0-.27.01-.41Z"/><path class="cls-5" d="m.12,328.26c.18.14.15.28-.01.41,0-.14,0-.27.01-.41Z"/><path class="cls-5" d="m.12,329.26c.18.14.15.28-.01.41,0-.14,0-.27.01-.41Z"/><path class="cls-5" d="m.12,330.26c.18.14.15.28-.01.41,0-.14,0-.27.01-.41Z"/><path class="cls-5" d="m.12,368.25c.18.14.15.28-.01.41,0-.14,0-.27.01-.41Z"/><path class="cls-5" d="m.12,331.26c.18.14.15.28-.01.41,0-.14,0-.27.01-.41Z"/><path class="cls-5" d="m.12,332.26c.18.14.15.28-.01.41,0-.14,0-.27.01-.41Z"/><path class="cls-5" d="m.12,333.26c.18.14.15.28-.01.41,0-.14,0-.27.01-.41Z"/><path class="cls-5" d="m.12,334.26c.18.14.15.28-.01.41,0-.14,0-.27.01-.41Z"/><path class="cls-5" d="m.12,335.26c.18.14.15.28-.01.41,0-.14,0-.27.01-.41Z"/><path class="cls-5" d="m.12,336.26c.18.14.15.28-.01.41,0-.14,0-.27.01-.41Z"/><path class="cls-5" d="m.12,337.26c.18.14.15.28-.01.41,0-.14,0-.27.01-.41Z"/><path class="cls-5" d="m.12,338.26c.18.14.15.28-.01.41,0-.14,0-.27.01-.41Z"/><path class="cls-5" d="m.12,339.26c.18.14.15.28-.01.41,0-.14,0-.27.01-.41Z"/><path class="cls-5" d="m.12,340.26c.18.14.15.28-.01.41,0-.14,0-.27.01-.41Z"/><path class="cls-5" d="m.12,341.26c.18.14.15.28-.01.41,0-.14,0-.27.01-.41Z"/><path class="cls-5" d="m.12,342.26c.18.14.15.28-.01.41,0-.14,0-.27.01-.41Z"/><path class="cls-5" d="m.12,343.26c.18.14.15.28-.01.41,0-.14,0-.27.01-.41Z"/><path class="cls-5" d="m.12,344.26c.18.14.15.28-.01.41,0-.14,0-.27.01-.41Z"/><path class="cls-5" d="m.12,345.26c.18.14.15.28-.01.41,0-.14,0-.27.01-.41Z"/><path class="cls-5" d="m.12,346.26c.18.14.15.28-.01.41,0-.14,0-.27.01-.41Z"/><path class="cls-5" d="m.12,347.26c.18.14.15.28-.01.41,0-.14,0-.27.01-.41Z"/><path class="cls-5" d="m.12,348.26c.18.14.15.28-.01.41,0-.14,0-.27.01-.41Z"/><path class="cls-5" d="m.12,349.26c.18.14.15.28-.01.41,0-.14,0-.27.01-.41Z"/><path class="cls-5" d="m.12,350.26c.18.14.15.28-.01.41,0-.14,0-.27.01-.41Z"/><path class="cls-5" d="m.12,351.26c.18.14.15.28-.01.41,0-.14,0-.27.01-.41Z"/><path class="cls-5" d="m.12,352.26c.18.14.15.28-.01.41,0-.14,0-.27.01-.41Z"/><path class="cls-5" d="m.12,353.26c.18.14.15.28-.01.41,0-.14,0-.27.01-.41Z"/><path class="cls-5" d="m.12,354.26c.18.14.15.28-.01.41,0-.14,0-.27.01-.41Z"/><path class="cls-5" d="m.12,355.26c.18.14.15.28-.01.41,0-.14,0-.27.01-.41Z"/><path class="cls-5" d="m.12,356.26c.18.14.15.28-.01.41,0-.14,0-.27.01-.41Z"/><path class="cls-5" d="m.12,357.26c.18.14.15.28-.01.41,0-.14,0-.27.01-.41Z"/><path class="cls-5" d="m.12,358.26c.18.14.15.28-.01.41,0-.14,0-.27.01-.41Z"/><path class="cls-5" d="m.12,359.25c.18.14.15.28-.01.41,0-.14,0-.27.01-.41Z"/><path class="cls-5" d="m.11,360.26c.16.14.15.27,0,.39,0-.13,0-.26,0-.39Z"/><path class="cls-5" d="m.11,361.26c.18.14.15.27,0,.4,0-.13,0-.27,0-.4Z"/><path class="cls-5" d="m.12,362.26c.18.14.15.28-.01.41,0-.14,0-.27.01-.41Z"/><path class="cls-5" d="m.12,363.26c.18.14.15.28-.01.41,0-.14,0-.27.01-.41Z"/><path class="cls-5" d="m.12,364.26c.18.14.15.28-.01.41,0-.14,0-.27.01-.41Z"/><path class="cls-5" d="m.12,365.25c.18.14.15.28-.01.41,0-.14,0-.27.01-.41Z"/><path class="cls-5" d="m.12,366.25c.18.14.15.28-.01.41,0-.14,0-.27.01-.41Z"/><path class="cls-5" d="m.12,269.27c.18.14.15.28-.01.41,0-.14,0-.27.01-.41Z"/><path class="cls-5" d="m311.97,283.52l-.08.07s-.08-.07-.07-.07c.06-.05.11-.05.15,0Z"/><path class="cls-5" d="m311.21,283.51l-.08.07s-.08-.07-.08-.07c.05-.06.1-.06.15,0Z"/><path class="cls-5" d="m108.29,278.66c-.13.07-.2,0-.22-.12.07.04.15.08.22.12Z"/><path class="cls-5" d="m383.55,229.28s.05.09.07.13c0,0-.04.03-.07.04-.06-.06-.07-.11,0-.17Z"/><path class="cls-2" d="m287.24,330.29c.84,1.53,1.72,3.03,3.16,4.09.21.16.42.31.35.59-.11.42-.47.25-.72.24-1.23-.02-2.37.31-3.48.78-.23-.22-.31-.51-.25-.79.35-1.63.31-3.33.95-4.91Z"/><path class="cls-3" d="m74.15,189.48c-.65-.19-.94-.66-1.07-1.27-.27-1.22-.52-2.43-.79-3.65-.49-2.28-1.87-3.55-4.16-3.84-1.23-.16-2.4-.55-3.56-.97-.45-.16-1.11-.34-1.01-.91.08-.47.69-.68,1.18-.81,1.24-.34,2.48-.7,3.74-.96,2.38-.48,3.57-1.82,3.92-4.29.18-1.29.41-2.7,1.12-3.91.44-.76.79-.71,1.17.04.71,1.39.8,2.93,1.13,4.41.48,2.1,1.74,3.32,3.82,3.78,1.24.27,2.48.58,3.7.95.52.16,1.32.33,1.29.95-.03.6-.82.77-1.37.92-1.39.39-2.8.72-4.21,1.03-1.43.31-2.36,1.12-2.83,2.51-.52,1.51-1.01,3.03-1.17,4.63-.07.62-.32,1.1-.89,1.38Z"/><path class="cls-3" d="m200.13,266.14c-1.04.19-2.09.37-3.13.57-1.64.31-2.83,1.12-3.24,2.85-.21.89-.51,1.75-.76,2.63-.07.25-.17.48-.45.53-.36.07-.5-.21-.65-.46-.27-.44-.31-.94-.44-1.42-.82-3.23-2-4.19-5.41-4.36-.48-.02-.88-.13-1.33-.46.81-.52,1.72-.46,2.56-.64,2.94-.65,4.01-1.83,4.25-4.8.05-.62.14-1.29.74-1.36.71-.09.82.68,1,1.23.1.32.18.64.25.96.44,2.14,1.48,3.66,3.86,3.93.94.11,1.85.41,2.77.62,0,.06-.02.13-.02.19Z"/><path class="cls-3" d="m329.32,146.15c-.2-1.68-.81-2.83-2.5-3.33,1.19-.81,2.49-1.3,2.53-2.91.01-.51.49-.24.64.07.46.94.89,1.87,1.99,2.25.35.12.37.56.11.71-1.25.7-1.8,2.02-2.78,3.22Z"/><path class="cls-3" d="m221.68,289.18c-.25.3-.34.51-.5.6-.74.43-1.05,1.11-1.29,1.88-.05.17-.02.57-.38.52-.28-.04-.38-.3-.4-.56-.05-.54-.33-.98-.76-1.22-1.2-.69-.87-1.42-.08-2.13.56-.51.59-1.65,1.3-1.68.72-.02.4,1.19.97,1.63.39.29.75.62,1.14.96Z"/></svg>