<?xml version="1.0" encoding="UTF-8"?><svg id="Layer_2" xmlns="http://www.w3.org/2000/svg" viewBox="0 0 186.36 186.36"><defs><style>.cls-1{fill:#d9d9d9;stroke-width:8px;}.cls-1,.cls-2{stroke-miterlimit:10;}.cls-1,.cls-2,.cls-3,.cls-4{stroke:#000;}.cls-2{stroke-width:2px;}.cls-3{fill:#848c48;}.cls-3,.cls-4{stroke-width:10px;}.cls-4{fill:#f393b2;stroke-linecap:round;stroke-linejoin:round;}</style></defs><g id="Layer_1-2"><path class="cls-3" d="m181.36,93.18c0,29.5-14.48,55.61-36.73,71.61-14.48,10.43-32.25,16.57-51.45,16.57s-37.94-6.48-52.63-17.43C18.97,147.86,5,122.15,5,93.18,5,44.48,44.48,5,93.18,5s88.18,39.48,88.18,88.18Z"/><path class="cls-4" d="m144.63,114.65v50.14c-14.48,10.43-32.25,16.57-51.45,16.57s-37.94-6.48-52.63-17.43v-49.28c0-21.19,12.66-39.43,30.84-47.54v-17.88c0-5.8,4.7-10.51,10.51-10.51,2.91,0,5.53,1.18,7.43,3.08,1.91,1.9,3.08,4.53,3.08,7.43v13.37h.36v-13.01c0-5.8,4.7-10.5,10.51-10.5,2.91,0,5.53,1.17,7.44,3.08s3.07,4.52,3.07,7.42v17.52c5.85,2.6,11.13,6.27,15.6,10.74,9.41,9.42,15.24,22.43,15.24,36.8Z"/><circle class="cls-1" cx="92.18" cy="118.55" r="36"/><rect x="63.39" y="109.42" width="13.75" height="8.9" rx="4.45" ry="4.45"/><rect x="106.94" y="110.09" width="13.75" height="8.9" rx="4.45" ry="4.45"/><path class="cls-2" d="m86.14,123.91c0-.45.19-.85.54-1.21.35-.36.75-.54,1.2-.53.42,0,.81.19,1.17.54l2.75,2.79c.21.16.39.25.55.25.21,0,.4-.07.56-.22l2.83-2.71c.35-.26.69-.38,1.04-.37.45,0,.83.22,1.15.62.32.4.48.84.47,1.31-.01.5-.2.89-.58,1.17l-2.62,2.16c-.16.15-.24.31-.25.47,0,.21.07.37.23.48l2.52,2.23c.36.3.54.7.53,1.2-.01.47-.18.91-.52,1.29-.34.39-.74.58-1.22.57-.32,0-.64-.15-.98-.42l-2.7-2.83c-.15-.16-.34-.24-.55-.25-.16,0-.34.07-.56.22l-2.87,2.66c-.38.33-.78.5-1.2.49-.45,0-.84-.2-1.17-.58-.33-.38-.5-.79-.49-1.24.01-.47.22-.87.62-1.17l2.86-2.31c.16-.1.24-.26.25-.47,0-.16-.07-.32-.23-.48l-2.75-2.47c-.21-.19-.35-.38-.44-.58-.09-.2-.13-.4-.12-.62Z"/></g></svg>