<?xml version="1.0" encoding="UTF-8"?><svg id="Layer_2" xmlns="http://www.w3.org/2000/svg" xmlns:xlink="http://www.w3.org/1999/xlink" viewBox="0 0 502.73 343.35"><defs><style>.cls-1{stroke-width:2px;}.cls-1,.cls-2,.cls-3,.cls-4,.cls-5{stroke:#000;}.cls-2{fill:none;stroke-width:8px;}.cls-3{fill:url(#linear-gradient);}.cls-3,.cls-4{stroke-width:10px;}.cls-3,.cls-4,.cls-5{stroke-miterlimit:10;}.cls-4{fill:#d9d9d9;}.cls-5{stroke-width:6px;}</style><linearGradient id="linear-gradient" x1="250.86" y1="5" x2="250.86" y2="63.7" gradientUnits="userSpaceOnUse"><stop offset="0" stop-color="#f393b2"/><stop offset=".34" stop-color="#efabc1"/><stop offset="1" stop-color="#e6e6e6"/></linearGradient></defs><g id="Layer_1-2"><path class="cls-4" d="m20.24,6.35h463.61c7.66,0,13.89,6.22,13.89,13.89v304.22c0,7.66-6.22,13.89-13.89,13.89H19.43c-7.66,0-13.89-6.22-13.89-13.89V21.04c0-8.11,6.59-14.7,14.7-14.7Z"/><path class="cls-3" d="m19.7,5h463.13c7.66,0,13.89,6.22,13.89,13.89v44.81H5V19.7c0-8.11,6.59-14.7,14.7-14.7Z"/><path class="cls-1" d="m437.96,25.15c.02-.99.4-1.88,1.13-2.68.73-.8,1.57-1.19,2.51-1.16.88.02,1.7.42,2.46,1.19l5.75,6.16c.43.36.82.54,1.15.55.44.01.83-.16,1.17-.5l5.92-5.98c.73-.57,1.45-.84,2.17-.82.94.02,1.74.48,2.41,1.37.67.89,1,1.86.97,2.9-.02,1.1-.43,1.97-1.21,2.59l-5.48,4.76c-.34.34-.51.69-.52,1.04,0,.47.15.82.47,1.06l5.28,4.92c.76.66,1.13,1.54,1.1,2.64-.02,1.05-.39,2-1.09,2.86-.71.86-1.56,1.27-2.55,1.25-.66-.02-1.35-.32-2.05-.92l-5.66-6.24c-.32-.36-.71-.54-1.15-.55-.33,0-.72.16-1.17.5l-6,5.89c-.79.74-1.62,1.1-2.5,1.08-.94-.02-1.76-.45-2.46-1.28-.7-.83-1.04-1.74-1.02-2.73.02-1.05.45-1.91,1.29-2.59l5.98-5.1c.34-.23.51-.57.52-1.04,0-.35-.15-.7-.47-1.06l-5.76-5.46c-.43-.42-.74-.85-.92-1.29-.18-.44-.27-.89-.26-1.36Z"/><rect class="cls-2" x="402.03" y="24.17" width="20.49" height="20.81" rx="1.67" ry="1.67"/><path class="cls-5" d="m365.35,45.78c-.52,0-.95-.16-1.29-.48-.34-.32-.51-.7-.51-1.14,0-.48.17-.88.51-1.2.34-.32.77-.48,1.29-.48h17.88c.56,0,1.02.14,1.38.42.36.28.54.66.54,1.14s-.18.89-.54,1.23c-.36.34-.82.51-1.38.51h-17.88Z"/></g></svg>