<?xml version="1.0" encoding="UTF-8"?><svg id="Layer_1" xmlns="http://www.w3.org/2000/svg" viewBox="0 0 196.87 141.12"><defs><style>.cls-1{stroke-linecap:round;}.cls-1,.cls-2,.cls-3{stroke-linejoin:round;}.cls-1,.cls-2,.cls-3,.cls-4,.cls-5{stroke:#000;}.cls-1,.cls-2,.cls-4,.cls-5{stroke-width:8px;}.cls-1,.cls-5{fill:#e6e6e6;}.cls-2{fill:#5463ad;}.cls-3{fill:#8beff2;stroke-width:8px;}.cls-4{fill:#f393b2;}</style></defs><path class="cls-2" d="m167.45,83.71l-34.55.62c-1.04-22.68-19.95-40.55-42.8-40.14-22.84.41-41.11,18.95-41.33,41.65l-35.07.63C12.94,44,46.74,8.96,89.2,8.2c42.46-.76,77.49,33.04,78.25,75.51h0Z"/><path class="cls-4" d="m151.9,84.06l-27.47.49c-.83-18.03-15.86-32.24-34.03-31.92-18.16.33-32.68,15.06-32.86,33.12l-27.88.5c-.61-33.76,26.27-61.62,60.03-62.22,33.76-.61,61.61,26.27,62.22,60.03Z"/><path class="cls-1" d="m133.53,84.38l-19.21.34c-.58-12.61-11.09-22.54-23.8-22.32-12.7.23-22.85,10.53-22.98,23.16l-19.5.35c-.42-23.61,18.37-43.08,41.97-43.51,23.61-.42,43.08,18.37,43.5,41.98h0Z"/><path class="cls-5" d="m190.04,77.05c0,3.85-1.56,7.34-4.09,9.87-2.53,2.52-6.01,4.09-9.87,4.09h-52.59c-7.63,0-14.08-6-14.25-13.63-.09-3.98,1.49-7.59,4.08-10.19,2.52-2.53,6.02-4.09,9.87-4.09h5.59s.03-.01.03-.03c.9-11.89,11.15-21.27,23.66-21.27s22.76,9.38,23.66,21.27c0,.02.02.03.03.03,7.67.05,13.87,6.28,13.87,13.96h0Z"/><path class="cls-3" d="m130.51,109.4l7.25,7.25c4,4,4,10.49,0,14.49h0c-4,4-10.49,4-14.49,0h0c-4-4-4-10.49,0-14.49l7.25-7.25h0Z"/><path class="cls-3" d="m164.58,79.91l7.25,7.25c4,4,4,10.49,0,14.49h0c-4,4-10.49,4-14.49,0h0c-4-4-4-10.49,0-14.49l7.25-7.25h0Z"/></svg>