<?xml version="1.0" encoding="UTF-8"?><svg id="Layer_1" xmlns="http://www.w3.org/2000/svg" viewBox="0 0 80.35 75.53"><defs><style>.cls-1{fill:#e4e4e4;}</style></defs><path class="cls-1" d="m40.17,73.24c-2.3,0-4.19-1.51-4.7-3.75l-3.37-14.89c-.94-4.13-4.07-7.32-8.18-8.33l-15.58-3.83c-2.19-.54-3.67-2.42-3.67-4.68s1.47-4.14,3.67-4.68l15.58-3.83c4.11-1.01,7.25-4.2,8.18-8.33l3.37-14.89c.51-2.24,2.4-3.75,4.7-3.75s4.19,1.51,4.7,3.75l3.37,14.89c.94,4.13,4.07,7.32,8.18,8.33l15.58,3.83c2.19.54,3.67,2.42,3.67,4.68s-1.47,4.14-3.67,4.68l-15.58,3.83c-4.11,1.01-7.25,4.2-8.18,8.33l-3.37,14.89c-.51,2.24-2.4,3.75-4.7,3.75Z"/><path d="m40.17,3.59c1.51,0,3.01.91,3.43,2.74l3.37,14.89c1.04,4.58,4.58,8.19,9.14,9.31l15.58,3.83c3.57.88,3.57,5.95,0,6.83l-15.58,3.83c-4.56,1.12-8.1,4.73-9.14,9.31l-3.37,14.89c-.41,1.83-1.92,2.74-3.43,2.74s-3.01-.91-3.43-2.74l-3.37-14.89c-1.04-4.58-4.58-8.19-9.14-9.31l-15.58-3.83c-3.57-.88-3.57-5.95,0-6.83l15.58-3.83c4.56-1.12,8.1-4.73,9.14-9.31l3.37-14.89c.41-1.83,1.92-2.74,3.43-2.74m0-2.6c-2.92,0-5.32,1.91-5.96,4.76l-3.37,14.89c-.83,3.65-3.59,6.47-7.22,7.36l-15.58,3.83c-2.79.68-4.66,3.07-4.66,5.94,0,2.87,1.87,5.25,4.66,5.94l15.58,3.83c3.63.89,6.4,3.71,7.22,7.36l3.37,14.89c.65,2.85,3.04,4.76,5.96,4.76s5.32-1.91,5.96-4.76l3.37-14.89c.83-3.65,3.59-6.46,7.22-7.36l15.58-3.83c2.79-.68,4.66-3.07,4.66-5.94s-1.87-5.25-4.66-5.94l-15.58-3.83c-3.63-.89-6.4-3.71-7.22-7.36l-3.37-14.89c-.65-2.85-3.04-4.76-5.96-4.76h0Z"/></svg>